{
    "asset" : {
        "generator" : "Khronos glTF Blender I/O v3.4.50",
        "version" : "2.0"
    },
    "extensionsUsed" : [
        "KHR_materials_specular",
        "KHR_materials_ior"
    ],
    "scene" : 0,
    "scenes" : [
        {
            "name" : "Scene",
            "nodes" : [
                2
            ]
        }
    ],
    "nodes" : [
        {
            "mesh" : 0,
            "name" : "aircon_wing",
            "rotation" : [
                -0.21553049981594086,
                0,
                0,
                0.9764971137046814
            ],
            "scale" : [
                0.6633209586143494,
                0.059624023735523224,
                0.010179990902543068
            ],
            "translation" : [
                -0.09050047397613525,
                1.0440597534179688,
                0.5725224018096924
            ]
        },
        {
            "mesh" : 1,
            "name" : "aircon_wrap",
            "scale" : [
                1,
                0.44787949323654175,
                0.042447689920663834
            ],
            "translation" : [
                0.02570664882659912,
                0.6724878549575806,
                0.06297483295202255
            ]
        },
        {
            "children" : [
                0,
                1
            ],
            "name" : "aircon_grp",
            "translation" : [
                0,
                -0.4769507944583893,
                -0.4756358861923218
            ]
        }
    ],
    "materials" : [
        {
            "doubleSided" : true,
            "extensions" : {
                "KHR_materials_specular" : {
                    "specularColorFactor" : [
                        1.9471239905792734,
                        1.9471239905792734,
                        1.9471239905792734
                    ]
                },
                "KHR_materials_ior" : {
                    "ior" : 1.4500000476837158
                }
            },
            "name" : "aircon wrap mat.001",
            "pbrMetallicRoughness" : {
                "baseColorFactor" : [
                    0.800000011920929,
                    0.800000011920929,
                    0.800000011920929,
                    1
                ],
                "metallicFactor" : 0.3486238420009613,
                "roughnessFactor" : 0.23394495248794556
            }
        }
    ],
    "meshes" : [
        {
            "name" : "Cube.008",
            "primitives" : [
                {
                    "attributes" : {
                        "POSITION" : 0,
                        "TEXCOORD_0" : 1,
                        "NORMAL" : 2
                    },
                    "indices" : 3,
                    "material" : 0
                }
            ]
        },
        {
            "name" : "Cube.006",
            "primitives" : [
                {
                    "attributes" : {
                        "POSITION" : 4,
                        "TEXCOORD_0" : 5,
                        "NORMAL" : 6
                    },
                    "indices" : 7,
                    "material" : 0
                }
            ]
        }
    ],
    "accessors" : [
        {
            "bufferView" : 0,
            "componentType" : 5126,
            "count" : 168,
            "max" : [
                2.2224645614624023,
                1.5,
                1.5
            ],
            "min" : [
                -1.8675830364227295,
                -14.099992752075195,
                -35.700008392333984
            ],
            "type" : "VEC3"
        },
        {
            "bufferView" : 1,
            "componentType" : 5126,
            "count" : 168,
            "type" : "VEC2"
        },
        {
            "bufferView" : 2,
            "componentType" : 5126,
            "count" : 168,
            "type" : "VEC3"
        },
        {
            "bufferView" : 3,
            "componentType" : 5123,
            "count" : 252,
            "type" : "SCALAR"
        },
        {
            "bufferView" : 4,
            "componentType" : 5126,
            "count" : 3136,
            "max" : [
                1.4990190267562866,
                1.4999887943267822,
                13.430281639099121
            ],
            "min" : [
                -1.496032953262329,
                -1.5001966953277588,
                -1.4999752044677734
            ],
            "type" : "VEC3"
        },
        {
            "bufferView" : 5,
            "componentType" : 5126,
            "count" : 3136,
            "type" : "VEC2"
        },
        {
            "bufferView" : 6,
            "componentType" : 5126,
            "count" : 3136,
            "type" : "VEC3"
        },
        {
            "bufferView" : 7,
            "componentType" : 5123,
            "count" : 12060,
            "type" : "SCALAR"
        }
    ],
    "bufferViews" : [
        {
            "buffer" : 0,
            "byteLength" : 2016,
            "byteOffset" : 0,
            "target" : 34962
        },
        {
            "buffer" : 0,
            "byteLength" : 1344,
            "byteOffset" : 2016,
            "target" : 34962
        },
        {
            "buffer" : 0,
            "byteLength" : 2016,
            "byteOffset" : 3360,
            "target" : 34962
        },
        {
            "buffer" : 0,
            "byteLength" : 504,
            "byteOffset" : 5376,
            "target" : 34963
        },
        {
            "buffer" : 0,
            "byteLength" : 37632,
            "byteOffset" : 5880,
            "target" : 34962
        },
        {
            "buffer" : 0,
            "byteLength" : 25088,
            "byteOffset" : 43512,
            "target" : 34962
        },
        {
            "buffer" : 0,
            "byteLength" : 37632,
            "byteOffset" : 68600,
            "target" : 34962
        },
        {
            "buffer" : 0,
            "byteLength" : 24120,
            "byteOffset" : 106232,
            "target" : 34963
        }
    ],
    "buffers" : [
        {
            "byteLength" : 130352,
            "uri" : "data:application/octet-stream;base64,"
        }
    ]
}
