{
    "asset" : {
        "generator" : "Khronos glTF Blender I/O v3.4.50",
        "version" : "2.0"
    },
    "extensionsUsed" : [
        "KHR_materials_specular",
        "KHR_materials_ior"
    ],
    "scene" : 0,
    "scenes" : [
        {
            "name" : "Scene",
            "nodes" : [
                8
            ]
        }
    ],
    "nodes" : [
        {
            "mesh" : 0,
            "name" : "bed bottom",
            "scale" : [
                4.1018900871276855,
                0.20643052458763123,
                2.4917476177215576
            ],
            "translation" : [
                0,
                0.4039376378059387,
                0
            ]
        },
        {
            "mesh" : 1,
            "name" : "bed cloth",
            "scale" : [
                1,
                0.03972635418176651,
                1
            ],
            "translation" : [
                0,
                1.3629388809204102,
                -0.9999997615814209
            ]
        },
        {
            "mesh" : 2,
            "name" : "bed cloth.001",
            "scale" : [
                1,
                0.03972635418176651,
                1.0253968238830566
            ],
            "translation" : [
                0.072908915579319,
                1.3707457780838013,
                -0.9999997615814209
            ]
        },
        {
            "mesh" : 3,
            "name" : "bed front",
            "scale" : [
                0.4757634997367859,
                0.9932613968849182,
                2.6051015853881836
            ],
            "translation" : [
                4.577653408050537,
                1.0000808238983154,
                0
            ]
        },
        {
            "mesh" : 4,
            "name" : "bed leg",
            "scale" : [
                0.2595245838165283,
                0.1941058486700058,
                0.3173779845237732
            ],
            "translation" : [
                -3.700636863708496,
                0.0034016186837106943,
                -2.047266721725464
            ]
        },
        {
            "name" : "main axis",
            "translation" : [
                0,
                1.0000808238983154,
                0
            ]
        },
        {
            "mesh" : 5,
            "name" : "mattress",
            "scale" : [
                4,
                0.3691566586494446,
                2.3514490127563477
            ],
            "translation" : [
                0,
                0.9795247912406921,
                0
            ]
        },
        {
            "mesh" : 6,
            "name" : "pillow",
            "rotation" : [
                -1,
                0,
                0,
                3.1391647326017846e-07
            ],
            "scale" : [
                0.8349173069000244,
                0.3351745009422302,
                1.4217561483383179
            ],
            "translation" : [
                3.2680156230926514,
                1.4904999732971191,
                0
            ]
        },
        {
            "children" : [
                0,
                1,
                2,
                3,
                4,
                5,
                6,
                7
            ],
            "name" : "bed grp",
            "translation" : [
                0,
                -1.0000808238983154,
                0
            ]
        }
    ],
    "materials" : [
        {
            "doubleSided" : true,
            "name" : "bed brown mat",
            "pbrMetallicRoughness" : {
                "baseColorFactor" : [
                    0.23176999390125275,
                    0.10581840574741364,
                    0.04311371222138405,
                    1
                ],
                "metallicFactor" : 0,
                "roughnessFactor" : 0.5
            }
        },
        {
            "doubleSided" : true,
            "name" : "pillow grey mat",
            "pbrMetallicRoughness" : {
                "baseColorFactor" : [
                    0.29893091320991516,
                    0.29893091320991516,
                    0.29893091320991516,
                    1
                ],
                "metallicFactor" : 0,
                "roughnessFactor" : 0.5
            }
        },
        {
            "doubleSided" : true,
            "extensions" : {
                "KHR_materials_specular" : {
                    "specularColorFactor" : [
                        0,
                        0,
                        0
                    ]
                },
                "KHR_materials_ior" : {
                    "ior" : 1.4500000476837158
                }
            },
            "name" : "matress mat",
            "pbrMetallicRoughness" : {
                "baseColorFactor" : [
                    0.800000011920929,
                    0.800000011920929,
                    0.800000011920929,
                    1
                ],
                "metallicFactor" : 0,
                "roughnessFactor" : 0.8532110452651978
            }
        }
    ],
    "meshes" : [
        {
            "name" : "Cube.003",
            "primitives" : [
                {
                    "attributes" : {
                        "POSITION" : 0,
                        "TEXCOORD_0" : 1,
                        "NORMAL" : 2
                    },
                    "indices" : 3,
                    "material" : 0
                }
            ]
        },
        {
            "name" : "Mesh",
            "primitives" : [
                {
                    "attributes" : {
                        "POSITION" : 4,
                        "TEXCOORD_0" : 5,
                        "NORMAL" : 6
                    },
                    "indices" : 7,
                    "material" : 1
                }
            ]
        },
        {
            "name" : "Mesh.002",
            "primitives" : [
                {
                    "attributes" : {
                        "POSITION" : 8,
                        "TEXCOORD_0" : 9,
                        "NORMAL" : 10
                    },
                    "indices" : 11,
                    "material" : 1
                }
            ]
        },
        {
            "name" : "Cube.005",
            "primitives" : [
                {
                    "attributes" : {
                        "POSITION" : 12,
                        "TEXCOORD_0" : 13,
                        "NORMAL" : 14
                    },
                    "indices" : 15,
                    "material" : 0
                }
            ]
        },
        {
            "name" : "Cube.007",
            "primitives" : [
                {
                    "attributes" : {
                        "POSITION" : 16,
                        "TEXCOORD_0" : 17,
                        "NORMAL" : 18
                    },
                    "indices" : 19,
                    "material" : 0
                }
            ]
        },
        {
            "name" : "Cube.002",
            "primitives" : [
                {
                    "attributes" : {
                        "POSITION" : 20,
                        "TEXCOORD_0" : 21,
                        "NORMAL" : 22
                    },
                    "indices" : 3,
                    "material" : 2
                }
            ]
        },
        {
            "name" : "Mesh.001",
            "primitives" : [
                {
                    "attributes" : {
                        "POSITION" : 23,
                        "TEXCOORD_0" : 24,
                        "NORMAL" : 25
                    },
                    "indices" : 26,
                    "material" : 1
                }
            ]
        }
    ],
    "accessors" : [
        {
            "bufferView" : 0,
            "componentType" : 5126,
            "count" : 216,
            "max" : [
                1,
                1,
                1
            ],
            "min" : [
                -1,
                -1,
                -1
            ],
            "type" : "VEC3"
        },
        {
            "bufferView" : 1,
            "componentType" : 5126,
            "count" : 216,
            "type" : "VEC2"
        },
        {
            "bufferView" : 2,
            "componentType" : 5126,
            "count" : 216,
            "type" : "VEC3"
        },
        {
            "bufferView" : 3,
            "componentType" : 5123,
            "count" : 324,
            "type" : "SCALAR"
        },
        {
            "bufferView" : 4,
            "componentType" : 5126,
            "count" : 9292,
            "max" : [
                2.3885674476623535,
                1.0397759675979614,
                3.431306838989258
            ],
            "min" : [
                -4.085361003875732,
                -18.73821258544922,
                -1.4313067197799683
            ],
            "type" : "VEC3"
        },
        {
            "bufferView" : 5,
            "componentType" : 5126,
            "count" : 9292,
            "type" : "VEC2"
        },
        {
            "bufferView" : 6,
            "componentType" : 5126,
            "count" : 9292,
            "type" : "VEC3"
        },
        {
            "bufferView" : 7,
            "componentType" : 5123,
            "count" : 26112,
            "type" : "SCALAR"
        },
        {
            "bufferView" : 8,
            "componentType" : 5126,
            "count" : 18534,
            "max" : [
                2.4098527431488037,
                4.653402328491211,
                3.5176327228546143
            ],
            "min" : [
                1.6385023593902588,
                -19.980466842651367,
                -1.5671679973602295
            ],
            "type" : "VEC3"
        },
        {
            "bufferView" : 9,
            "componentType" : 5126,
            "count" : 18534,
            "type" : "VEC2"
        },
        {
            "bufferView" : 10,
            "componentType" : 5126,
            "count" : 18534,
            "type" : "VEC3"
        },
        {
            "bufferView" : 11,
            "componentType" : 5123,
            "count" : 57024,
            "type" : "SCALAR"
        },
        {
            "bufferView" : 12,
            "componentType" : 5126,
            "count" : 89,
            "max" : [
                0.8787356019020081,
                1.5216038227081299,
                1
            ],
            "min" : [
                -1,
                -1.20328950881958,
                -1
            ],
            "type" : "VEC3"
        },
        {
            "bufferView" : 13,
            "componentType" : 5126,
            "count" : 89,
            "type" : "VEC2"
        },
        {
            "bufferView" : 14,
            "componentType" : 5126,
            "count" : 89,
            "type" : "VEC3"
        },
        {
            "bufferView" : 15,
            "componentType" : 5123,
            "count" : 186,
            "type" : "SCALAR"
        },
        {
            "bufferView" : 16,
            "componentType" : 5126,
            "count" : 48,
            "max" : [
                1,
                1,
                13.901124954223633
            ],
            "min" : [
                -1,
                -1,
                -1
            ],
            "type" : "VEC3"
        },
        {
            "bufferView" : 17,
            "componentType" : 5126,
            "count" : 48,
            "type" : "VEC2"
        },
        {
            "bufferView" : 18,
            "componentType" : 5126,
            "count" : 48,
            "type" : "VEC3"
        },
        {
            "bufferView" : 19,
            "componentType" : 5123,
            "count" : 72,
            "type" : "SCALAR"
        },
        {
            "bufferView" : 20,
            "componentType" : 5126,
            "count" : 216,
            "max" : [
                1,
                1,
                1
            ],
            "min" : [
                -1,
                -1,
                -1
            ],
            "type" : "VEC3"
        },
        {
            "bufferView" : 21,
            "componentType" : 5126,
            "count" : 216,
            "type" : "VEC2"
        },
        {
            "bufferView" : 22,
            "componentType" : 5126,
            "count" : 216,
            "type" : "VEC3"
        },
        {
            "bufferView" : 23,
            "componentType" : 5126,
            "count" : 13461,
            "max" : [
                0.9259901642799377,
                0.9609913229942322,
                0.9521158933639526
            ],
            "min" : [
                -0.9257004857063293,
                -1.2026408910751343,
                -0.9521159529685974
            ],
            "type" : "VEC3"
        },
        {
            "bufferView" : 24,
            "componentType" : 5126,
            "count" : 13461,
            "type" : "VEC2"
        },
        {
            "bufferView" : 25,
            "componentType" : 5126,
            "count" : 13461,
            "type" : "VEC3"
        },
        {
            "bufferView" : 26,
            "componentType" : 5123,
            "count" : 28032,
            "type" : "SCALAR"
        }
    ],
    "bufferViews" : [
        {
            "buffer" : 0,
            "byteLength" : 2592,
            "byteOffset" : 0,
            "target" : 34962
        },
        {
            "buffer" : 0,
            "byteLength" : 1728,
            "byteOffset" : 2592,
            "target" : 34962
        },
        {
            "buffer" : 0,
            "byteLength" : 2592,
            "byteOffset" : 4320,
            "target" : 34962
        },
        {
            "buffer" : 0,
            "byteLength" : 648,
            "byteOffset" : 6912,
            "target" : 34963
        },
        {
            "buffer" : 0,
            "byteLength" : 111504,
            "byteOffset" : 7560,
            "target" : 34962
        },
        {
            "buffer" : 0,
            "byteLength" : 74336,
            "byteOffset" : 119064,
            "target" : 34962
        },
        {
            "buffer" : 0,
            "byteLength" : 111504,
            "byteOffset" : 193400,
            "target" : 34962
        },
        {
            "buffer" : 0,
            "byteLength" : 52224,
            "byteOffset" : 304904,
            "target" : 34963
        },
        {
            "buffer" : 0,
            "byteLength" : 222408,
            "byteOffset" : 357128,
            "target" : 34962
        },
        {
            "buffer" : 0,
            "byteLength" : 148272,
            "byteOffset" : 579536,
            "target" : 34962
        },
        {
            "buffer" : 0,
            "byteLength" : 222408,
            "byteOffset" : 727808,
            "target" : 34962
        },
        {
            "buffer" : 0,
            "byteLength" : 114048,
            "byteOffset" : 950216,
            "target" : 34963
        },
        {
            "buffer" : 0,
            "byteLength" : 1068,
            "byteOffset" : 1064264,
            "target" : 34962
        },
        {
            "buffer" : 0,
            "byteLength" : 712,
            "byteOffset" : 1065332,
            "target" : 34962
        },
        {
            "buffer" : 0,
            "byteLength" : 1068,
            "byteOffset" : 1066044,
            "target" : 34962
        },
        {
            "buffer" : 0,
            "byteLength" : 372,
            "byteOffset" : 1067112,
            "target" : 34963
        },
        {
            "buffer" : 0,
            "byteLength" : 576,
            "byteOffset" : 1067484,
            "target" : 34962
        },
        {
            "buffer" : 0,
            "byteLength" : 384,
            "byteOffset" : 1068060,
            "target" : 34962
        },
        {
            "buffer" : 0,
            "byteLength" : 576,
            "byteOffset" : 1068444,
            "target" : 34962
        },
        {
            "buffer" : 0,
            "byteLength" : 144,
            "byteOffset" : 1069020,
            "target" : 34963
        },
        {
            "buffer" : 0,
            "byteLength" : 2592,
            "byteOffset" : 1069164,
            "target" : 34962
        },
        {
            "buffer" : 0,
            "byteLength" : 1728,
            "byteOffset" : 1071756,
            "target" : 34962
        },
        {
            "buffer" : 0,
            "byteLength" : 2592,
            "byteOffset" : 1073484,
            "target" : 34962
        },
        {
            "buffer" : 0,
            "byteLength" : 161532,
            "byteOffset" : 1076076,
            "target" : 34962
        },
        {
            "buffer" : 0,
            "byteLength" : 107688,
            "byteOffset" : 1237608,
            "target" : 34962
        },
        {
            "buffer" : 0,
            "byteLength" : 161532,
            "byteOffset" : 1345296,
            "target" : 34962
        },
        {
            "buffer" : 0,
            "byteLength" : 56064,
            "byteOffset" : 1506828,
            "target" : 34963
        }
    ],
    "buffers" : [
        {
            "byteLength" : 1562892,
            "uri" : "data:application/octet-stream;base64,"
        }
    ]
}
