{
    "asset" : {
        "generator" : "Khronos glTF Blender I/O v3.4.50",
        "version" : "2.0"
    },
    "extensionsUsed" : [
        "KHR_materials_specular",
        "KHR_materials_ior"
    ],
    "scene" : 0,
    "scenes" : [
        {
            "name" : "Scene",
            "nodes" : [
                0
            ]
        }
    ],
    "nodes" : [
        {
            "mesh" : 0,
            "name" : "carpet"
        }
    ],
    "materials" : [
        {
            "doubleSided" : true,
            "extensions" : {
                "KHR_materials_specular" : {
                    "specularColorFactor" : [
                        0.474271529955476,
                        0.474271529955476,
                        0.474271529955476
                    ]
                },
                "KHR_materials_ior" : {
                    "ior" : 1.4500000476837158
                }
            },
            "name" : "carpet mint 1 mat",
            "pbrMetallicRoughness" : {
                "baseColorFactor" : [
                    0.3213195204734802,
                    1,
                    0.3185892105102539,
                    1
                ],
                "metallicFactor" : 0,
                "roughnessFactor" : 0.8999999761581421
            }
        },
        {
            "doubleSided" : true,
            "extensions" : {
                "KHR_materials_specular" : {
                    "specularColorFactor" : [
                        0.474271529955476,
                        0.474271529955476,
                        0.474271529955476
                    ]
                },
                "KHR_materials_ior" : {
                    "ior" : 1.4500000476837158
                }
            },
            "name" : "carpet mint 2 mat",
            "pbrMetallicRoughness" : {
                "baseColorFactor" : [
                    0.22696031630039215,
                    0.8000000715255737,
                    0.790787398815155,
                    1
                ],
                "metallicFactor" : 0,
                "roughnessFactor" : 0.8999999761581421
            }
        }
    ],
    "meshes" : [
        {
            "name" : "Plane.011",
            "primitives" : [
                {
                    "attributes" : {
                        "POSITION" : 0,
                        "TEXCOORD_0" : 1,
                        "NORMAL" : 2
                    },
                    "indices" : 3,
                    "material" : 0
                },
                {
                    "attributes" : {
                        "POSITION" : 4,
                        "TEXCOORD_0" : 5,
                        "NORMAL" : 6
                    },
                    "indices" : 7,
                    "material" : 1
                }
            ]
        }
    ],
    "accessors" : [
        {
            "bufferView" : 0,
            "componentType" : 5126,
            "count" : 80,
            "max" : [
                0,
                0.019999999552965164,
                1
            ],
            "min" : [
                -1.2679070234298706,
                0,
                -1
            ],
            "type" : "VEC3"
        },
        {
            "bufferView" : 1,
            "componentType" : 5126,
            "count" : 80,
            "type" : "VEC2"
        },
        {
            "bufferView" : 2,
            "componentType" : 5126,
            "count" : 80,
            "type" : "VEC3"
        },
        {
            "bufferView" : 3,
            "componentType" : 5123,
            "count" : 150,
            "type" : "SCALAR"
        },
        {
            "bufferView" : 4,
            "componentType" : 5126,
            "count" : 80,
            "max" : [
                1.2679070234298706,
                0.019999999552965164,
                1
            ],
            "min" : [
                0,
                0,
                -1
            ],
            "type" : "VEC3"
        },
        {
            "bufferView" : 5,
            "componentType" : 5126,
            "count" : 80,
            "type" : "VEC2"
        },
        {
            "bufferView" : 6,
            "componentType" : 5126,
            "count" : 80,
            "type" : "VEC3"
        },
        {
            "bufferView" : 7,
            "componentType" : 5123,
            "count" : 150,
            "type" : "SCALAR"
        }
    ],
    "bufferViews" : [
        {
            "buffer" : 0,
            "byteLength" : 960,
            "byteOffset" : 0,
            "target" : 34962
        },
        {
            "buffer" : 0,
            "byteLength" : 640,
            "byteOffset" : 960,
            "target" : 34962
        },
        {
            "buffer" : 0,
            "byteLength" : 960,
            "byteOffset" : 1600,
            "target" : 34962
        },
        {
            "buffer" : 0,
            "byteLength" : 300,
            "byteOffset" : 2560,
            "target" : 34963
        },
        {
            "buffer" : 0,
            "byteLength" : 960,
            "byteOffset" : 2860,
            "target" : 34962
        },
        {
            "buffer" : 0,
            "byteLength" : 640,
            "byteOffset" : 3820,
            "target" : 34962
        },
        {
            "buffer" : 0,
            "byteLength" : 960,
            "byteOffset" : 4460,
            "target" : 34962
        },
        {
            "buffer" : 0,
            "byteLength" : 300,
            "byteOffset" : 5420,
            "target" : 34963
        }
    ],
    "buffers" : [
        {
            "byteLength" : 5720,
            "uri" : "data:application/octet-stream;base64,"
        }
    ]
}
