{
    "asset" : {
        "generator" : "Khronos glTF Blender I/O v3.4.50",
        "version" : "2.0"
    },
    "extensionsUsed" : [
        "KHR_materials_specular",
        "KHR_materials_ior"
    ],
    "scene" : 0,
    "scenes" : [
        {
            "name" : "Scene",
            "nodes" : [
                3
            ]
        }
    ],
    "nodes" : [
        {
            "mesh" : 0,
            "name" : "cup",
            "translation" : [
                0,
                0.15999384224414825,
                0
            ]
        },
        {
            "mesh" : 1,
            "name" : "cup_fluid",
            "scale" : [
                0.7636675834655762,
                0.7636675834655762,
                0.7636675834655762
            ],
            "translation" : [
                0.0020118355751037598,
                -0.010594367980957031,
                0.006075143814086914
            ]
        },
        {
            "children" : [
                1
            ],
            "mesh" : 2,
            "name" : "cup origin",
            "translation" : [
                0,
                0.15999384224414825,
                0
            ]
        },
        {
            "children" : [
                0,
                2
            ],
            "name" : "cup axis",
            "translation" : [
                0,
                -0.15999384224414825,
                0
            ]
        }
    ],
    "materials" : [
        {
            "doubleSided" : true,
            "extensions" : {
                "KHR_materials_specular" : {
                    "specularColorFactor" : [
                        2.371357614441398,
                        2.371357614441398,
                        2.371357614441398
                    ]
                },
                "KHR_materials_ior" : {
                    "ior" : 1.4500000476837158
                }
            },
            "name" : "cup mat",
            "pbrMetallicRoughness" : {
                "baseColorFactor" : [
                    0.800000011920929,
                    0.800000011920929,
                    0.800000011920929,
                    1
                ],
                "metallicFactor" : 0,
                "roughnessFactor" : 0
            }
        },
        {
            "doubleSided" : true,
            "name" : "cup fluid mat",
            "pbrMetallicRoughness" : {
                "baseColorFactor" : [
                    1,
                    0.7512958645820618,
                    0.2999415695667267,
                    1
                ],
                "metallicFactor" : 0,
                "roughnessFactor" : 0.5
            }
        }
    ],
    "meshes" : [
        {
            "name" : "Cylinder.005",
            "primitives" : [
                {
                    "attributes" : {
                        "POSITION" : 0,
                        "TEXCOORD_0" : 1,
                        "NORMAL" : 2
                    },
                    "indices" : 3,
                    "material" : 0
                }
            ]
        },
        {
            "name" : "Cylinder.014",
            "primitives" : [
                {
                    "attributes" : {
                        "POSITION" : 4,
                        "TEXCOORD_0" : 5,
                        "NORMAL" : 6
                    },
                    "indices" : 7,
                    "material" : 1
                }
            ]
        },
        {
            "name" : "Cylinder.013",
            "primitives" : [
                {
                    "attributes" : {
                        "POSITION" : 8,
                        "TEXCOORD_0" : 9,
                        "NORMAL" : 10
                    },
                    "indices" : 11,
                    "material" : 0
                }
            ]
        }
    ],
    "accessors" : [
        {
            "bufferView" : 0,
            "componentType" : 5126,
            "count" : 53344,
            "max" : [
                0.15715546905994415,
                0.1599804013967514,
                0.15715546905994415
            ],
            "min" : [
                -0.27427056431770325,
                -0.15998205542564392,
                -0.15715546905994415
            ],
            "type" : "VEC3"
        },
        {
            "bufferView" : 1,
            "componentType" : 5126,
            "count" : 53344,
            "type" : "VEC2"
        },
        {
            "bufferView" : 2,
            "componentType" : 5126,
            "count" : 53344,
            "type" : "VEC3"
        },
        {
            "bufferView" : 3,
            "componentType" : 5123,
            "count" : 276096,
            "type" : "SCALAR"
        },
        {
            "bufferView" : 4,
            "componentType" : 5126,
            "count" : 96,
            "max" : [
                0.1599999964237213,
                0.1599999964237213,
                0.1599999964237213
            ],
            "min" : [
                -0.1599999964237213,
                -0.1599999964237213,
                -0.1599999964237213
            ],
            "type" : "VEC3"
        },
        {
            "bufferView" : 5,
            "componentType" : 5126,
            "count" : 96,
            "type" : "VEC2"
        },
        {
            "bufferView" : 6,
            "componentType" : 5126,
            "count" : 96,
            "type" : "VEC3"
        },
        {
            "bufferView" : 7,
            "componentType" : 5123,
            "count" : 180,
            "type" : "SCALAR"
        },
        {
            "bufferView" : 8,
            "componentType" : 5126,
            "count" : 344,
            "max" : [
                0.1573207825422287,
                0.1599999964237213,
                0.1573207825422287
            ],
            "min" : [
                -0.2839665114879608,
                -0.1599999964237213,
                -0.1573207825422287
            ],
            "type" : "VEC3"
        },
        {
            "bufferView" : 9,
            "componentType" : 5126,
            "count" : 344,
            "type" : "VEC2"
        },
        {
            "bufferView" : 10,
            "componentType" : 5126,
            "count" : 344,
            "type" : "VEC3"
        },
        {
            "bufferView" : 11,
            "componentType" : 5123,
            "count" : 756,
            "type" : "SCALAR"
        }
    ],
    "bufferViews" : [
        {
            "buffer" : 0,
            "byteLength" : 640128,
            "byteOffset" : 0,
            "target" : 34962
        },
        {
            "buffer" : 0,
            "byteLength" : 426752,
            "byteOffset" : 640128,
            "target" : 34962
        },
        {
            "buffer" : 0,
            "byteLength" : 640128,
            "byteOffset" : 1066880,
            "target" : 34962
        },
        {
            "buffer" : 0,
            "byteLength" : 552192,
            "byteOffset" : 1707008,
            "target" : 34963
        },
        {
            "buffer" : 0,
            "byteLength" : 1152,
            "byteOffset" : 2259200,
            "target" : 34962
        },
        {
            "buffer" : 0,
            "byteLength" : 768,
            "byteOffset" : 2260352,
            "target" : 34962
        },
        {
            "buffer" : 0,
            "byteLength" : 1152,
            "byteOffset" : 2261120,
            "target" : 34962
        },
        {
            "buffer" : 0,
            "byteLength" : 360,
            "byteOffset" : 2262272,
            "target" : 34963
        },
        {
            "buffer" : 0,
            "byteLength" : 4128,
            "byteOffset" : 2262632,
            "target" : 34962
        },
        {
            "buffer" : 0,
            "byteLength" : 2752,
            "byteOffset" : 2266760,
            "target" : 34962
        },
        {
            "buffer" : 0,
            "byteLength" : 4128,
            "byteOffset" : 2269512,
            "target" : 34962
        },
        {
            "buffer" : 0,
            "byteLength" : 1512,
            "byteOffset" : 2273640,
            "target" : 34963
        }
    ],
    "buffers" : [
        {
            "byteLength" : 2275152,
            "uri" : "data:application/octet-stream;base64,"
        }
    ]
}
