{
    "asset" : {
        "generator" : "Khronos glTF Blender I/O v3.4.50",
        "version" : "2.0"
    },
    "scene" : 0,
    "scenes" : [
        {
            "name" : "Scene",
            "nodes" : [
                5
            ]
        }
    ],
    "nodes" : [
        {
            "mesh" : 0,
            "name" : "chopstick",
            "rotation" : [
                0.1767573356628418,
                -0.009844166226685047,
                0.05472876876592636,
                0.9826824069023132
            ],
            "scale" : [
                0.04323369637131691,
                1,
                0.04323369637131691
            ],
            "translation" : [
                -0.044913649559020996,
                0.06865179538726807,
                0.07026028633117676
            ]
        },
        {
            "mesh" : 1,
            "name" : "chopstick.001",
            "rotation" : [
                0.17703047394752502,
                0.0004906408139504492,
                -0.0027277199551463127,
                0.9842015504837036
            ],
            "scale" : [
                0.04323369637131691,
                1,
                0.04323368892073631
            ],
            "translation" : [
                -0.03743325173854828,
                0.06769245862960815,
                0.08224821090698242
            ]
        },
        {
            "children" : [
                0,
                1
            ],
            "name" : "chopstick_grp"
        },
        {
            "mesh" : 2,
            "name" : "ramen_fluid"
        },
        {
            "mesh" : 3,
            "name" : "ramen_top",
            "translation" : [
                0,
                0.18100178241729736,
                0
            ]
        },
        {
            "children" : [
                2,
                3,
                4
            ],
            "mesh" : 4,
            "name" : "ramen"
        }
    ],
    "materials" : [
        {
            "doubleSided" : true,
            "name" : "chopstick mat",
            "pbrMetallicRoughness" : {
                "baseColorFactor" : [
                    1,
                    0.6954013109207153,
                    0.3665412664413452,
                    1
                ],
                "metallicFactor" : 0,
                "roughnessFactor" : 0.5
            }
        },
        {
            "doubleSided" : true,
            "name" : "Material.001",
            "pbrMetallicRoughness" : {
                "baseColorFactor" : [
                    0.8000000715255737,
                    0.20764370262622833,
                    0.09915410727262497,
                    1
                ],
                "metallicFactor" : 0,
                "roughnessFactor" : 0.5
            }
        },
        {
            "doubleSided" : true,
            "name" : "cup ramen mat",
            "pbrMetallicRoughness" : {
                "baseColorFactor" : [
                    0.800000011920929,
                    0.800000011920929,
                    0.800000011920929,
                    1
                ],
                "metallicFactor" : 0,
                "roughnessFactor" : 0.5
            }
        },
        {
            "doubleSided" : true,
            "name" : "cup ramen holder mat",
            "pbrMetallicRoughness" : {
                "baseColorFactor" : [
                    0.3762516677379608,
                    0.006470077205449343,
                    0.01291939802467823,
                    1
                ],
                "metallicFactor" : 0,
                "roughnessFactor" : 0.5
            }
        }
    ],
    "meshes" : [
        {
            "name" : "Cylinder.017",
            "primitives" : [
                {
                    "attributes" : {
                        "POSITION" : 0,
                        "TEXCOORD_0" : 1,
                        "NORMAL" : 2
                    },
                    "indices" : 3,
                    "material" : 0
                }
            ]
        },
        {
            "name" : "Cylinder.018",
            "primitives" : [
                {
                    "attributes" : {
                        "POSITION" : 4,
                        "TEXCOORD_0" : 5,
                        "NORMAL" : 6
                    },
                    "indices" : 3,
                    "material" : 0
                }
            ]
        },
        {
            "name" : "Cylinder.016",
            "primitives" : [
                {
                    "attributes" : {
                        "POSITION" : 7,
                        "TEXCOORD_0" : 8,
                        "NORMAL" : 9
                    },
                    "indices" : 10,
                    "material" : 1
                }
            ]
        },
        {
            "name" : "Circle.001",
            "primitives" : [
                {
                    "attributes" : {
                        "POSITION" : 11,
                        "TEXCOORD_0" : 12,
                        "NORMAL" : 13
                    },
                    "indices" : 14
                }
            ]
        },
        {
            "name" : "Cylinder.006",
            "primitives" : [
                {
                    "attributes" : {
                        "POSITION" : 15,
                        "TEXCOORD_0" : 16,
                        "NORMAL" : 17
                    },
                    "indices" : 18,
                    "material" : 2
                },
                {
                    "attributes" : {
                        "POSITION" : 19,
                        "TEXCOORD_0" : 20,
                        "NORMAL" : 21
                    },
                    "indices" : 22,
                    "material" : 3
                }
            ]
        }
    ],
    "accessors" : [
        {
            "bufferView" : 0,
            "componentType" : 5126,
            "count" : 96,
            "max" : [
                0.1599999964237213,
                0.27343928813934326,
                0.1599999964237213
            ],
            "min" : [
                -0.1599999964237213,
                -0.1599999964237213,
                -0.1599999964237213
            ],
            "type" : "VEC3"
        },
        {
            "bufferView" : 1,
            "componentType" : 5126,
            "count" : 96,
            "type" : "VEC2"
        },
        {
            "bufferView" : 2,
            "componentType" : 5126,
            "count" : 96,
            "type" : "VEC3"
        },
        {
            "bufferView" : 3,
            "componentType" : 5123,
            "count" : 180,
            "type" : "SCALAR"
        },
        {
            "bufferView" : 4,
            "componentType" : 5126,
            "count" : 96,
            "max" : [
                0.1599999964237213,
                0.27343928813934326,
                0.1599999964237213
            ],
            "min" : [
                -0.1599999964237213,
                -0.1599999964237213,
                -0.1599999964237213
            ],
            "type" : "VEC3"
        },
        {
            "bufferView" : 5,
            "componentType" : 5126,
            "count" : 96,
            "type" : "VEC2"
        },
        {
            "bufferView" : 6,
            "componentType" : 5126,
            "count" : 96,
            "type" : "VEC3"
        },
        {
            "bufferView" : 7,
            "componentType" : 5126,
            "count" : 96,
            "max" : [
                0.13724274933338165,
                0.1020701676607132,
                0.13724274933338165
            ],
            "min" : [
                -0.13724274933338165,
                -0.14543472230434418,
                -0.13724274933338165
            ],
            "type" : "VEC3"
        },
        {
            "bufferView" : 8,
            "componentType" : 5126,
            "count" : 96,
            "type" : "VEC2"
        },
        {
            "bufferView" : 9,
            "componentType" : 5126,
            "count" : 96,
            "type" : "VEC3"
        },
        {
            "bufferView" : 10,
            "componentType" : 5123,
            "count" : 180,
            "type" : "SCALAR"
        },
        {
            "bufferView" : 11,
            "componentType" : 5126,
            "count" : 403,
            "max" : [
                0.14317697286605835,
                0.26022279262542725,
                -0.057562924921512604
            ],
            "min" : [
                -0.16865672171115875,
                -0.010542616248130798,
                -0.15001347661018372
            ],
            "type" : "VEC3"
        },
        {
            "bufferView" : 12,
            "componentType" : 5126,
            "count" : 403,
            "type" : "VEC2"
        },
        {
            "bufferView" : 13,
            "componentType" : 5126,
            "count" : 403,
            "type" : "VEC3"
        },
        {
            "bufferView" : 14,
            "componentType" : 5123,
            "count" : 1920,
            "type" : "SCALAR"
        },
        {
            "bufferView" : 15,
            "componentType" : 5126,
            "count" : 4972,
            "max" : [
                0.16100606322288513,
                0.1683339923620224,
                0.16100606322288513
            ],
            "min" : [
                -0.16100606322288513,
                -0.15999087691307068,
                -0.16100606322288513
            ],
            "type" : "VEC3"
        },
        {
            "bufferView" : 16,
            "componentType" : 5126,
            "count" : 4972,
            "type" : "VEC2"
        },
        {
            "bufferView" : 17,
            "componentType" : 5126,
            "count" : 4972,
            "type" : "VEC3"
        },
        {
            "bufferView" : 18,
            "componentType" : 5123,
            "count" : 17220,
            "type" : "SCALAR"
        },
        {
            "bufferView" : 19,
            "componentType" : 5126,
            "count" : 3832,
            "max" : [
                0.1574719250202179,
                0.11141295731067657,
                0.15747752785682678
            ],
            "min" : [
                -0.15748320519924164,
                -0.08006075024604797,
                -0.15747754275798798
            ],
            "type" : "VEC3"
        },
        {
            "bufferView" : 20,
            "componentType" : 5126,
            "count" : 3832,
            "type" : "VEC2"
        },
        {
            "bufferView" : 21,
            "componentType" : 5126,
            "count" : 3832,
            "type" : "VEC3"
        },
        {
            "bufferView" : 22,
            "componentType" : 5123,
            "count" : 13116,
            "type" : "SCALAR"
        }
    ],
    "bufferViews" : [
        {
            "buffer" : 0,
            "byteLength" : 1152,
            "byteOffset" : 0,
            "target" : 34962
        },
        {
            "buffer" : 0,
            "byteLength" : 768,
            "byteOffset" : 1152,
            "target" : 34962
        },
        {
            "buffer" : 0,
            "byteLength" : 1152,
            "byteOffset" : 1920,
            "target" : 34962
        },
        {
            "buffer" : 0,
            "byteLength" : 360,
            "byteOffset" : 3072,
            "target" : 34963
        },
        {
            "buffer" : 0,
            "byteLength" : 1152,
            "byteOffset" : 3432,
            "target" : 34962
        },
        {
            "buffer" : 0,
            "byteLength" : 768,
            "byteOffset" : 4584,
            "target" : 34962
        },
        {
            "buffer" : 0,
            "byteLength" : 1152,
            "byteOffset" : 5352,
            "target" : 34962
        },
        {
            "buffer" : 0,
            "byteLength" : 1152,
            "byteOffset" : 6504,
            "target" : 34962
        },
        {
            "buffer" : 0,
            "byteLength" : 768,
            "byteOffset" : 7656,
            "target" : 34962
        },
        {
            "buffer" : 0,
            "byteLength" : 1152,
            "byteOffset" : 8424,
            "target" : 34962
        },
        {
            "buffer" : 0,
            "byteLength" : 360,
            "byteOffset" : 9576,
            "target" : 34963
        },
        {
            "buffer" : 0,
            "byteLength" : 4836,
            "byteOffset" : 9936,
            "target" : 34962
        },
        {
            "buffer" : 0,
            "byteLength" : 3224,
            "byteOffset" : 14772,
            "target" : 34962
        },
        {
            "buffer" : 0,
            "byteLength" : 4836,
            "byteOffset" : 17996,
            "target" : 34962
        },
        {
            "buffer" : 0,
            "byteLength" : 3840,
            "byteOffset" : 22832,
            "target" : 34963
        },
        {
            "buffer" : 0,
            "byteLength" : 59664,
            "byteOffset" : 26672,
            "target" : 34962
        },
        {
            "buffer" : 0,
            "byteLength" : 39776,
            "byteOffset" : 86336,
            "target" : 34962
        },
        {
            "buffer" : 0,
            "byteLength" : 59664,
            "byteOffset" : 126112,
            "target" : 34962
        },
        {
            "buffer" : 0,
            "byteLength" : 34440,
            "byteOffset" : 185776,
            "target" : 34963
        },
        {
            "buffer" : 0,
            "byteLength" : 45984,
            "byteOffset" : 220216,
            "target" : 34962
        },
        {
            "buffer" : 0,
            "byteLength" : 30656,
            "byteOffset" : 266200,
            "target" : 34962
        },
        {
            "buffer" : 0,
            "byteLength" : 45984,
            "byteOffset" : 296856,
            "target" : 34962
        },
        {
            "buffer" : 0,
            "byteLength" : 26232,
            "byteOffset" : 342840,
            "target" : 34963
        }
    ],
    "buffers" : [
        {
            "byteLength" : 369072,
            "uri" : "data:application/octet-stream;base64,"
        }
    ]
}
