{
    "asset" : {
        "generator" : "Khronos glTF Blender I/O v3.4.50",
        "version" : "2.0"
    },
    "scene" : 0,
    "scenes" : [
        {
            "name" : "Scene",
            "nodes" : [
                9
            ]
        }
    ],
    "nodes" : [
        {
            "mesh" : 0,
            "name" : "gamepad btn 1",
            "scale" : [
                0.013437557965517044,
                0.0019259151304140687,
                0.013437557965517044
            ],
            "translation" : [
                0.00017952984489966184,
                -0.00192602863535285,
                -0.03738134354352951
            ]
        },
        {
            "mesh" : 1,
            "name" : "gamepad btn 2",
            "rotation" : [
                0,
                0.7071068286895752,
                0,
                0.7071067094802856
            ],
            "scale" : [
                0.013437557965517044,
                0.0019259151304140687,
                0.013437557965517044
            ],
            "translation" : [
                -0.03340744972229004,
                -0.001926027936860919,
                -1.9548318960005417e-05
            ]
        },
        {
            "children" : [
                0,
                1
            ],
            "name" : "gamepad btn grp",
            "rotation" : [
                0,
                -0.10452857613563538,
                0,
                0.994521975517273
            ],
            "scale" : [
                1.4474176168441772,
                7.181889533996582,
                1.4474176168441772
            ],
            "translation" : [
                -0.00030182706541381776,
                0.18580752611160278,
                0.004750578664243221
            ]
        },
        {
            "children" : [
                2
            ],
            "mesh" : 2,
            "name" : "gamepad_l",
            "rotation" : [
                0,
                0.10452857613563538,
                0,
                0.994521975517273
            ],
            "scale" : [
                0.6908856630325317,
                0.1392391175031662,
                0.6908856630325317
            ],
            "translation" : [
                -0.14824700355529785,
                0,
                0.07850587368011475
            ]
        },
        {
            "mesh" : 3,
            "name" : "gamepad_m",
            "scale" : [
                0.14977017045021057,
                0.02233235538005829,
                0.07023733109235764
            ],
            "translation" : [
                0,
                0,
                0.04001796245574951
            ]
        },
        {
            "mesh" : 4,
            "name" : "gamepad btn2 1",
            "scale" : [
                0.11226224899291992,
                0.013721614144742489,
                0.11226224899291992
            ],
            "translation" : [
                0.0005695826257579029,
                -0.0028550378046929836,
                -0.03748304024338722
            ]
        },
        {
            "mesh" : 5,
            "name" : "gamepad btn2 2",
            "scale" : [
                0.11226224899291992,
                0.013721614144742489,
                0.11226224899291992
            ],
            "translation" : [
                -0.037611231207847595,
                -0.00280092959292233,
                0.0012012694496661425
            ]
        },
        {
            "children" : [
                5,
                6
            ],
            "name" : "gamepad btn2 grp",
            "rotation" : [
                0,
                -0.10452857613563538,
                0,
                0.994521975517273
            ],
            "scale" : [
                1.4474176168441772,
                7.181889533996582,
                1.4474176168441772
            ],
            "translation" : [
                -0.000978930271230638,
                0.18580752611160278,
                0.004606327973306179
            ]
        },
        {
            "children" : [
                7
            ],
            "mesh" : 6,
            "name" : "gamepad_r",
            "rotation" : [
                0,
                0.10452857613563538,
                0,
                0.994521975517273
            ],
            "scale" : [
                0.6908856630325317,
                0.1392391175031662,
                0.6908856630325317
            ],
            "translation" : [
                0.14824700355529785,
                0,
                0.07850587368011475
            ]
        },
        {
            "children" : [
                3,
                4,
                8
            ],
            "name" : "gamepad_grp"
        }
    ],
    "materials" : [
        {
            "doubleSided" : true,
            "name" : "gamepad btn1 mat",
            "pbrMetallicRoughness" : {
                "baseColorFactor" : [
                    0.006554043851792812,
                    0.006554043851792812,
                    0.006554043851792812,
                    1
                ],
                "metallicFactor" : 0,
                "roughnessFactor" : 0.5
            }
        },
        {
            "doubleSided" : true,
            "name" : "gamepad btn2 mat",
            "pbrMetallicRoughness" : {
                "baseColorFactor" : [
                    0.9520143270492554,
                    0.007145097479224205,
                    0.009375195950269699,
                    1
                ],
                "metallicFactor" : 0,
                "roughnessFactor" : 0.5
            }
        }
    ],
    "meshes" : [
        {
            "name" : "Cube.014",
            "primitives" : [
                {
                    "attributes" : {
                        "POSITION" : 0,
                        "TEXCOORD_0" : 1,
                        "NORMAL" : 2
                    },
                    "indices" : 3,
                    "material" : 0
                }
            ]
        },
        {
            "name" : "Cube.015",
            "primitives" : [
                {
                    "attributes" : {
                        "POSITION" : 4,
                        "TEXCOORD_0" : 5,
                        "NORMAL" : 6
                    },
                    "indices" : 7,
                    "material" : 0
                }
            ]
        },
        {
            "name" : "Cylinder.019",
            "primitives" : [
                {
                    "attributes" : {
                        "POSITION" : 8,
                        "TEXCOORD_0" : 9,
                        "NORMAL" : 10
                    },
                    "indices" : 11
                }
            ]
        },
        {
            "name" : "Cube.011",
            "primitives" : [
                {
                    "attributes" : {
                        "POSITION" : 12,
                        "TEXCOORD_0" : 13,
                        "NORMAL" : 14
                    },
                    "indices" : 15
                }
            ]
        },
        {
            "name" : "Cylinder.024",
            "primitives" : [
                {
                    "attributes" : {
                        "POSITION" : 16,
                        "TEXCOORD_0" : 17,
                        "NORMAL" : 18
                    },
                    "indices" : 19,
                    "material" : 1
                }
            ]
        },
        {
            "name" : "Cylinder.025",
            "primitives" : [
                {
                    "attributes" : {
                        "POSITION" : 20,
                        "TEXCOORD_0" : 21,
                        "NORMAL" : 22
                    },
                    "indices" : 23,
                    "material" : 1
                }
            ]
        },
        {
            "name" : "Cylinder.020",
            "primitives" : [
                {
                    "attributes" : {
                        "POSITION" : 24,
                        "TEXCOORD_0" : 25,
                        "NORMAL" : 26
                    },
                    "indices" : 11
                }
            ]
        }
    ],
    "accessors" : [
        {
            "bufferView" : 0,
            "componentType" : 5126,
            "count" : 68,
            "max" : [
                1.000000238418579,
                1.0000001192092896,
                6.5637125968933105
            ],
            "min" : [
                -1,
                -1.0000001192092896,
                -1
            ],
            "type" : "VEC3"
        },
        {
            "bufferView" : 1,
            "componentType" : 5126,
            "count" : 68,
            "type" : "VEC2"
        },
        {
            "bufferView" : 2,
            "componentType" : 5126,
            "count" : 68,
            "type" : "VEC3"
        },
        {
            "bufferView" : 3,
            "componentType" : 5123,
            "count" : 120,
            "type" : "SCALAR"
        },
        {
            "bufferView" : 4,
            "componentType" : 5126,
            "count" : 68,
            "max" : [
                1,
                1.0000001192092896,
                5.972250938415527
            ],
            "min" : [
                -1.000001072883606,
                -1.0000001192092896,
                -1
            ],
            "type" : "VEC3"
        },
        {
            "bufferView" : 5,
            "componentType" : 5126,
            "count" : 68,
            "type" : "VEC2"
        },
        {
            "bufferView" : 6,
            "componentType" : 5126,
            "count" : 68,
            "type" : "VEC3"
        },
        {
            "bufferView" : 7,
            "componentType" : 5123,
            "count" : 120,
            "type" : "SCALAR"
        },
        {
            "bufferView" : 8,
            "componentType" : 5126,
            "count" : 96,
            "max" : [
                0.1599999964237213,
                0.1599999964237213,
                0.1599999964237213
            ],
            "min" : [
                -0.1599999964237213,
                -0.1599999964237213,
                -0.1599999964237213
            ],
            "type" : "VEC3"
        },
        {
            "bufferView" : 9,
            "componentType" : 5126,
            "count" : 96,
            "type" : "VEC2"
        },
        {
            "bufferView" : 10,
            "componentType" : 5126,
            "count" : 96,
            "type" : "VEC3"
        },
        {
            "bufferView" : 11,
            "componentType" : 5123,
            "count" : 180,
            "type" : "SCALAR"
        },
        {
            "bufferView" : 12,
            "componentType" : 5126,
            "count" : 24,
            "max" : [
                1,
                1,
                1
            ],
            "min" : [
                -1,
                -1,
                -1
            ],
            "type" : "VEC3"
        },
        {
            "bufferView" : 13,
            "componentType" : 5126,
            "count" : 24,
            "type" : "VEC2"
        },
        {
            "bufferView" : 14,
            "componentType" : 5126,
            "count" : 24,
            "type" : "VEC3"
        },
        {
            "bufferView" : 15,
            "componentType" : 5123,
            "count" : 36,
            "type" : "SCALAR"
        },
        {
            "bufferView" : 16,
            "componentType" : 5126,
            "count" : 144,
            "max" : [
                0.1600000262260437,
                0.1599999964237213,
                0.8277763724327087
            ],
            "min" : [
                -0.1599999964237213,
                -0.1599999964237213,
                -0.1599999964237213
            ],
            "type" : "VEC3"
        },
        {
            "bufferView" : 17,
            "componentType" : 5126,
            "count" : 144,
            "type" : "VEC2"
        },
        {
            "bufferView" : 18,
            "componentType" : 5126,
            "count" : 144,
            "type" : "VEC3"
        },
        {
            "bufferView" : 19,
            "componentType" : 5123,
            "count" : 264,
            "type" : "SCALAR"
        },
        {
            "bufferView" : 20,
            "componentType" : 5126,
            "count" : 144,
            "max" : [
                0.8300605416297913,
                0.1600000113248825,
                0.1599999964237213
            ],
            "min" : [
                -0.1599999964237213,
                -0.1599999964237213,
                -0.1600000262260437
            ],
            "type" : "VEC3"
        },
        {
            "bufferView" : 21,
            "componentType" : 5126,
            "count" : 144,
            "type" : "VEC2"
        },
        {
            "bufferView" : 22,
            "componentType" : 5126,
            "count" : 144,
            "type" : "VEC3"
        },
        {
            "bufferView" : 23,
            "componentType" : 5123,
            "count" : 264,
            "type" : "SCALAR"
        },
        {
            "bufferView" : 24,
            "componentType" : 5126,
            "count" : 96,
            "max" : [
                0.1599999964237213,
                0.1599999964237213,
                0.1599999964237213
            ],
            "min" : [
                -0.1599999964237213,
                -0.1599999964237213,
                -0.1599999964237213
            ],
            "type" : "VEC3"
        },
        {
            "bufferView" : 25,
            "componentType" : 5126,
            "count" : 96,
            "type" : "VEC2"
        },
        {
            "bufferView" : 26,
            "componentType" : 5126,
            "count" : 96,
            "type" : "VEC3"
        }
    ],
    "bufferViews" : [
        {
            "buffer" : 0,
            "byteLength" : 816,
            "byteOffset" : 0,
            "target" : 34962
        },
        {
            "buffer" : 0,
            "byteLength" : 544,
            "byteOffset" : 816,
            "target" : 34962
        },
        {
            "buffer" : 0,
            "byteLength" : 816,
            "byteOffset" : 1360,
            "target" : 34962
        },
        {
            "buffer" : 0,
            "byteLength" : 240,
            "byteOffset" : 2176,
            "target" : 34963
        },
        {
            "buffer" : 0,
            "byteLength" : 816,
            "byteOffset" : 2416,
            "target" : 34962
        },
        {
            "buffer" : 0,
            "byteLength" : 544,
            "byteOffset" : 3232,
            "target" : 34962
        },
        {
            "buffer" : 0,
            "byteLength" : 816,
            "byteOffset" : 3776,
            "target" : 34962
        },
        {
            "buffer" : 0,
            "byteLength" : 240,
            "byteOffset" : 4592,
            "target" : 34963
        },
        {
            "buffer" : 0,
            "byteLength" : 1152,
            "byteOffset" : 4832,
            "target" : 34962
        },
        {
            "buffer" : 0,
            "byteLength" : 768,
            "byteOffset" : 5984,
            "target" : 34962
        },
        {
            "buffer" : 0,
            "byteLength" : 1152,
            "byteOffset" : 6752,
            "target" : 34962
        },
        {
            "buffer" : 0,
            "byteLength" : 360,
            "byteOffset" : 7904,
            "target" : 34963
        },
        {
            "buffer" : 0,
            "byteLength" : 288,
            "byteOffset" : 8264,
            "target" : 34962
        },
        {
            "buffer" : 0,
            "byteLength" : 192,
            "byteOffset" : 8552,
            "target" : 34962
        },
        {
            "buffer" : 0,
            "byteLength" : 288,
            "byteOffset" : 8744,
            "target" : 34962
        },
        {
            "buffer" : 0,
            "byteLength" : 72,
            "byteOffset" : 9032,
            "target" : 34963
        },
        {
            "buffer" : 0,
            "byteLength" : 1728,
            "byteOffset" : 9104,
            "target" : 34962
        },
        {
            "buffer" : 0,
            "byteLength" : 1152,
            "byteOffset" : 10832,
            "target" : 34962
        },
        {
            "buffer" : 0,
            "byteLength" : 1728,
            "byteOffset" : 11984,
            "target" : 34962
        },
        {
            "buffer" : 0,
            "byteLength" : 528,
            "byteOffset" : 13712,
            "target" : 34963
        },
        {
            "buffer" : 0,
            "byteLength" : 1728,
            "byteOffset" : 14240,
            "target" : 34962
        },
        {
            "buffer" : 0,
            "byteLength" : 1152,
            "byteOffset" : 15968,
            "target" : 34962
        },
        {
            "buffer" : 0,
            "byteLength" : 1728,
            "byteOffset" : 17120,
            "target" : 34962
        },
        {
            "buffer" : 0,
            "byteLength" : 528,
            "byteOffset" : 18848,
            "target" : 34963
        },
        {
            "buffer" : 0,
            "byteLength" : 1152,
            "byteOffset" : 19376,
            "target" : 34962
        },
        {
            "buffer" : 0,
            "byteLength" : 768,
            "byteOffset" : 20528,
            "target" : 34962
        },
        {
            "buffer" : 0,
            "byteLength" : 1152,
            "byteOffset" : 21296,
            "target" : 34962
        }
    ],
    "buffers" : [
        {
            "byteLength" : 22448,
            "uri" : "data:application/octet-stream;base64,"
        }
    ]
}
