{
    "asset" : {
        "generator" : "Khronos glTF Blender I/O v3.4.50",
        "version" : "2.0"
    },
    "extensionsUsed" : [
        "KHR_materials_specular",
        "KHR_materials_ior"
    ],
    "scene" : 0,
    "scenes" : [
        {
            "name" : "Scene",
            "nodes" : [
                8
            ]
        }
    ],
    "nodes" : [
        {
            "mesh" : 0,
            "name" : "howwindow",
            "rotation" : [
                0,
                0,
                -0.7071068286895752,
                0.7071068286895752
            ],
            "scale" : [
                1,
                1,
                1.2481634616851807
            ]
        },
        {
            "mesh" : 1,
            "name" : "howwindow_stick",
            "rotation" : [
                0,
                0,
                -0.7071068286895752,
                0.7071068286895752
            ],
            "scale" : [
                1,
                1,
                1.2481634616851807
            ]
        },
        {
            "mesh" : 2,
            "name" : "howwindow_wing_1"
        },
        {
            "children" : [
                2
            ],
            "mesh" : 3,
            "name" : "howwindow_wrap_1",
            "rotation" : [
                0,
                0,
                -0.7071068286895752,
                0.7071068286895752
            ],
            "scale" : [
                1,
                1,
                1.2481634616851807
            ],
            "translation" : [
                0.0247150007635355,
                -1.2747801542282104,
                -2.519784688949585
            ]
        },
        {
            "mesh" : 4,
            "name" : "howwindow_wing_2"
        },
        {
            "children" : [
                4
            ],
            "mesh" : 5,
            "name" : "howwindow_wrap_2",
            "rotation" : [
                0,
                0,
                -0.7071068286895752,
                0.7071068286895752
            ],
            "scale" : [
                1,
                1,
                1.2481634616851807
            ],
            "translation" : [
                0.02471507340669632,
                0,
                0.03034166246652603
            ]
        },
        {
            "mesh" : 6,
            "name" : "howwindow_wing_3"
        },
        {
            "children" : [
                6
            ],
            "mesh" : 7,
            "name" : "howwindow_wrap_3",
            "rotation" : [
                0,
                0,
                -0.7071068286895752,
                0.7071068286895752
            ],
            "scale" : [
                1,
                1,
                1.2481634616851807
            ],
            "translation" : [
                0.0247150007635355,
                -1.7221581935882568,
                2.4155049324035645
            ]
        },
        {
            "children" : [
                0,
                1,
                3,
                5,
                7
            ],
            "name" : "homewindow grp"
        }
    ],
    "materials" : [
        {
            "doubleSided" : true,
            "extensions" : {
                "KHR_materials_specular" : {
                    "specularColorFactor" : [
                        0.37357002353441787,
                        0.37357002353441787,
                        0.37357002353441787
                    ]
                },
                "KHR_materials_ior" : {
                    "ior" : 1.4500000476837158
                }
            },
            "name" : "window",
            "pbrMetallicRoughness" : {
                "baseColorFactor" : [
                    1,
                    0.8514809012413025,
                    0.7354687452316284,
                    1
                ],
                "metallicFactor" : 0.5205479264259338,
                "roughnessFactor" : 0.47945207357406616
            }
        },
        {
            "doubleSided" : true,
            "extensions" : {
                "KHR_materials_specular" : {
                    "specularColorFactor" : [
                        0,
                        0,
                        0
                    ]
                },
                "KHR_materials_ior" : {
                    "ior" : 1.4500000476837158
                }
            },
            "name" : "window wing mat",
            "pbrMetallicRoughness" : {
                "baseColorFactor" : [
                    0.800000011920929,
                    0.800000011920929,
                    0.800000011920929,
                    1
                ],
                "metallicFactor" : 0.5504586696624756,
                "roughnessFactor" : 0.3211009204387665
            }
        }
    ],
    "meshes" : [
        {
            "name" : "Plane.012",
            "primitives" : [
                {
                    "attributes" : {
                        "POSITION" : 0,
                        "TEXCOORD_0" : 1,
                        "NORMAL" : 2
                    },
                    "indices" : 3,
                    "material" : 0
                }
            ]
        },
        {
            "name" : "Plane.014",
            "primitives" : [
                {
                    "attributes" : {
                        "POSITION" : 4,
                        "TEXCOORD_0" : 5,
                        "NORMAL" : 6
                    },
                    "indices" : 7,
                    "material" : 1
                }
            ]
        },
        {
            "name" : "Plane.010",
            "primitives" : [
                {
                    "attributes" : {
                        "POSITION" : 8,
                        "TEXCOORD_0" : 9,
                        "NORMAL" : 10
                    },
                    "indices" : 11,
                    "material" : 1
                }
            ]
        },
        {
            "name" : "Plane.004",
            "primitives" : [
                {
                    "attributes" : {
                        "POSITION" : 12,
                        "TEXCOORD_0" : 13,
                        "NORMAL" : 14
                    },
                    "indices" : 15,
                    "material" : 1
                }
            ]
        },
        {
            "name" : "Plane.003",
            "primitives" : [
                {
                    "attributes" : {
                        "POSITION" : 16,
                        "TEXCOORD_0" : 17,
                        "NORMAL" : 18
                    },
                    "indices" : 19,
                    "material" : 1
                }
            ]
        },
        {
            "name" : "Plane.006",
            "primitives" : [
                {
                    "attributes" : {
                        "POSITION" : 20,
                        "TEXCOORD_0" : 21,
                        "NORMAL" : 22
                    },
                    "indices" : 15,
                    "material" : 1
                }
            ]
        },
        {
            "name" : "Plane.013",
            "primitives" : [
                {
                    "attributes" : {
                        "POSITION" : 23,
                        "TEXCOORD_0" : 24,
                        "NORMAL" : 25
                    },
                    "indices" : 26,
                    "material" : 1
                }
            ]
        },
        {
            "name" : "Plane.008",
            "primitives" : [
                {
                    "attributes" : {
                        "POSITION" : 27,
                        "TEXCOORD_0" : 28,
                        "NORMAL" : 29
                    },
                    "indices" : 15,
                    "material" : 1
                }
            ]
        }
    ],
    "accessors" : [
        {
            "bufferView" : 0,
            "componentType" : 5126,
            "count" : 192,
            "max" : [
                3.502842664718628,
                2.197995208064185e-08,
                3
            ],
            "min" : [
                -3,
                -0.17029190063476562,
                -3
            ],
            "type" : "VEC3"
        },
        {
            "bufferView" : 1,
            "componentType" : 5126,
            "count" : 192,
            "type" : "VEC2"
        },
        {
            "bufferView" : 2,
            "componentType" : 5126,
            "count" : 192,
            "type" : "VEC3"
        },
        {
            "bufferView" : 3,
            "componentType" : 5123,
            "count" : 342,
            "type" : "SCALAR"
        },
        {
            "bufferView" : 4,
            "componentType" : 5126,
            "count" : 5025,
            "max" : [
                -2.7661566734313965,
                -0.2210226058959961,
                3.0598509311676025
            ],
            "min" : [
                -2.938958168029785,
                -0.42070040106773376,
                -3.03761625289917
            ],
            "type" : "VEC3"
        },
        {
            "bufferView" : 5,
            "componentType" : 5126,
            "count" : 5025,
            "type" : "VEC2"
        },
        {
            "bufferView" : 6,
            "componentType" : 5126,
            "count" : 5025,
            "type" : "VEC3"
        },
        {
            "bufferView" : 7,
            "componentType" : 5123,
            "count" : 25344,
            "type" : "SCALAR"
        },
        {
            "bufferView" : 8,
            "componentType" : 5126,
            "count" : 504,
            "max" : [
                -0.30864137411117554,
                -0.19672270119190216,
                0.7215996384620667
            ],
            "min" : [
                -3.9877843856811523,
                -0.4452759623527527,
                -0.6578291058540344
            ],
            "type" : "VEC3"
        },
        {
            "bufferView" : 9,
            "componentType" : 5126,
            "count" : 504,
            "type" : "VEC2"
        },
        {
            "bufferView" : 10,
            "componentType" : 5126,
            "count" : 504,
            "type" : "VEC3"
        },
        {
            "bufferView" : 11,
            "componentType" : 5123,
            "count" : 840,
            "type" : "SCALAR"
        },
        {
            "bufferView" : 12,
            "componentType" : 5126,
            "count" : 72,
            "max" : [
                -0.2064628154039383,
                -0.2301705926656723,
                0.9983530044555664
            ],
            "min" : [
                -4.073003768920898,
                -0.3804294466972351,
                -0.9983530044555664
            ],
            "type" : "VEC3"
        },
        {
            "bufferView" : 13,
            "componentType" : 5126,
            "count" : 72,
            "type" : "VEC2"
        },
        {
            "bufferView" : 14,
            "componentType" : 5126,
            "count" : 72,
            "type" : "VEC3"
        },
        {
            "bufferView" : 15,
            "componentType" : 5123,
            "count" : 108,
            "type" : "SCALAR"
        },
        {
            "bufferView" : 16,
            "componentType" : 5126,
            "count" : 324,
            "max" : [
                -0.30864137411117554,
                -0.19672270119190216,
                0.7215996384620667
            ],
            "min" : [
                -2.6652169227600098,
                -0.4452759623527527,
                -0.6578291058540344
            ],
            "type" : "VEC3"
        },
        {
            "bufferView" : 17,
            "componentType" : 5126,
            "count" : 324,
            "type" : "VEC2"
        },
        {
            "bufferView" : 18,
            "componentType" : 5126,
            "count" : 324,
            "type" : "VEC3"
        },
        {
            "bufferView" : 19,
            "componentType" : 5123,
            "count" : 540,
            "type" : "SCALAR"
        },
        {
            "bufferView" : 20,
            "componentType" : 5126,
            "count" : 72,
            "max" : [
                -0.2064628154039383,
                -0.2301705926656723,
                0.9983530044555664
            ],
            "min" : [
                -2.7982232570648193,
                -0.38042953610420227,
                -0.9983530044555664
            ],
            "type" : "VEC3"
        },
        {
            "bufferView" : 21,
            "componentType" : 5126,
            "count" : 72,
            "type" : "VEC2"
        },
        {
            "bufferView" : 22,
            "componentType" : 5126,
            "count" : 72,
            "type" : "VEC3"
        },
        {
            "bufferView" : 23,
            "componentType" : 5126,
            "count" : 576,
            "max" : [
                -0.30864137411117554,
                -0.19672270119190216,
                0.7215996384620667
            ],
            "min" : [
                -4.516811370849609,
                -0.4452759623527527,
                -0.6578291058540344
            ],
            "type" : "VEC3"
        },
        {
            "bufferView" : 24,
            "componentType" : 5126,
            "count" : 576,
            "type" : "VEC2"
        },
        {
            "bufferView" : 25,
            "componentType" : 5126,
            "count" : 576,
            "type" : "VEC3"
        },
        {
            "bufferView" : 26,
            "componentType" : 5123,
            "count" : 960,
            "type" : "SCALAR"
        },
        {
            "bufferView" : 27,
            "componentType" : 5126,
            "count" : 72,
            "max" : [
                -0.2064628154039383,
                -0.2301705926656723,
                0.9983530044555664
            ],
            "min" : [
                -4.520381927490234,
                -0.3804294168949127,
                -0.9983530044555664
            ],
            "type" : "VEC3"
        },
        {
            "bufferView" : 28,
            "componentType" : 5126,
            "count" : 72,
            "type" : "VEC2"
        },
        {
            "bufferView" : 29,
            "componentType" : 5126,
            "count" : 72,
            "type" : "VEC3"
        }
    ],
    "bufferViews" : [
        {
            "buffer" : 0,
            "byteLength" : 2304,
            "byteOffset" : 0,
            "target" : 34962
        },
        {
            "buffer" : 0,
            "byteLength" : 1536,
            "byteOffset" : 2304,
            "target" : 34962
        },
        {
            "buffer" : 0,
            "byteLength" : 2304,
            "byteOffset" : 3840,
            "target" : 34962
        },
        {
            "buffer" : 0,
            "byteLength" : 684,
            "byteOffset" : 6144,
            "target" : 34963
        },
        {
            "buffer" : 0,
            "byteLength" : 60300,
            "byteOffset" : 6828,
            "target" : 34962
        },
        {
            "buffer" : 0,
            "byteLength" : 40200,
            "byteOffset" : 67128,
            "target" : 34962
        },
        {
            "buffer" : 0,
            "byteLength" : 60300,
            "byteOffset" : 107328,
            "target" : 34962
        },
        {
            "buffer" : 0,
            "byteLength" : 50688,
            "byteOffset" : 167628,
            "target" : 34963
        },
        {
            "buffer" : 0,
            "byteLength" : 6048,
            "byteOffset" : 218316,
            "target" : 34962
        },
        {
            "buffer" : 0,
            "byteLength" : 4032,
            "byteOffset" : 224364,
            "target" : 34962
        },
        {
            "buffer" : 0,
            "byteLength" : 6048,
            "byteOffset" : 228396,
            "target" : 34962
        },
        {
            "buffer" : 0,
            "byteLength" : 1680,
            "byteOffset" : 234444,
            "target" : 34963
        },
        {
            "buffer" : 0,
            "byteLength" : 864,
            "byteOffset" : 236124,
            "target" : 34962
        },
        {
            "buffer" : 0,
            "byteLength" : 576,
            "byteOffset" : 236988,
            "target" : 34962
        },
        {
            "buffer" : 0,
            "byteLength" : 864,
            "byteOffset" : 237564,
            "target" : 34962
        },
        {
            "buffer" : 0,
            "byteLength" : 216,
            "byteOffset" : 238428,
            "target" : 34963
        },
        {
            "buffer" : 0,
            "byteLength" : 3888,
            "byteOffset" : 238644,
            "target" : 34962
        },
        {
            "buffer" : 0,
            "byteLength" : 2592,
            "byteOffset" : 242532,
            "target" : 34962
        },
        {
            "buffer" : 0,
            "byteLength" : 3888,
            "byteOffset" : 245124,
            "target" : 34962
        },
        {
            "buffer" : 0,
            "byteLength" : 1080,
            "byteOffset" : 249012,
            "target" : 34963
        },
        {
            "buffer" : 0,
            "byteLength" : 864,
            "byteOffset" : 250092,
            "target" : 34962
        },
        {
            "buffer" : 0,
            "byteLength" : 576,
            "byteOffset" : 250956,
            "target" : 34962
        },
        {
            "buffer" : 0,
            "byteLength" : 864,
            "byteOffset" : 251532,
            "target" : 34962
        },
        {
            "buffer" : 0,
            "byteLength" : 6912,
            "byteOffset" : 252396,
            "target" : 34962
        },
        {
            "buffer" : 0,
            "byteLength" : 4608,
            "byteOffset" : 259308,
            "target" : 34962
        },
        {
            "buffer" : 0,
            "byteLength" : 6912,
            "byteOffset" : 263916,
            "target" : 34962
        },
        {
            "buffer" : 0,
            "byteLength" : 1920,
            "byteOffset" : 270828,
            "target" : 34963
        },
        {
            "buffer" : 0,
            "byteLength" : 864,
            "byteOffset" : 272748,
            "target" : 34962
        },
        {
            "buffer" : 0,
            "byteLength" : 576,
            "byteOffset" : 273612,
            "target" : 34962
        },
        {
            "buffer" : 0,
            "byteLength" : 864,
            "byteOffset" : 274188,
            "target" : 34962
        }
    ],
    "buffers" : [
        {
            "byteLength" : 275052,
            "uri" : "data:application/octet-stream;base64,"
        }
    ]
}
