{
    "asset" : {
        "generator" : "Khronos glTF Blender I/O v3.4.50",
        "version" : "2.0"
    },
    "extensionsUsed" : [
        "KHR_materials_specular",
        "KHR_materials_ior"
    ],
    "scene" : 0,
    "scenes" : [
        {
            "name" : "Scene",
            "nodes" : [
                3
            ]
        }
    ],
    "nodes" : [
        {
            "mesh" : 0,
            "name" : "lamp_bottom",
            "translation" : [
                -9.226799011230469e-05,
                -0.00881156511604786,
                0.00020551681518554688
            ]
        },
        {
            "mesh" : 1,
            "name" : "lamp_head",
            "scale" : [
                0.29664111137390137,
                0.29664111137390137,
                0.29664111137390137
            ],
            "translation" : [
                -9.226799011230469e-05,
                2.1121468544006348,
                0.00020551681518554688
            ]
        },
        {
            "mesh" : 2,
            "name" : "lamp_middle",
            "translation" : [
                -9.226799011230469e-05,
                1.0211883783340454,
                0.00020551681518554688
            ]
        },
        {
            "children" : [
                0,
                1,
                2
            ],
            "name" : "lamp_grp"
        }
    ],
    "materials" : [
        {
            "doubleSided" : true,
            "extensions" : {
                "KHR_materials_specular" : {
                    "specularColorFactor" : [
                        1.3968271305554318,
                        1.3968271305554318,
                        1.3968271305554318
                    ]
                },
                "KHR_materials_ior" : {
                    "ior" : 1.4500000476837158
                }
            },
            "name" : "lamp black mat",
            "pbrMetallicRoughness" : {
                "baseColorFactor" : [
                    0.010272118262946606,
                    0.010272118262946606,
                    0.010272118262946606,
                    1
                ],
                "metallicFactor" : 0.9246575236320496,
                "roughnessFactor" : 0.2945205569267273
            }
        }
    ],
    "meshes" : [
        {
            "name" : "Cylinder.015",
            "primitives" : [
                {
                    "attributes" : {
                        "POSITION" : 0,
                        "TEXCOORD_0" : 1,
                        "NORMAL" : 2
                    },
                    "indices" : 3,
                    "material" : 0
                }
            ]
        },
        {
            "name" : "Cylinder.022",
            "primitives" : [
                {
                    "attributes" : {
                        "POSITION" : 4,
                        "TEXCOORD_0" : 5,
                        "NORMAL" : 6
                    },
                    "indices" : 7
                }
            ]
        },
        {
            "name" : "Cylinder.021",
            "primitives" : [
                {
                    "attributes" : {
                        "POSITION" : 8,
                        "TEXCOORD_0" : 9,
                        "NORMAL" : 10
                    },
                    "indices" : 11,
                    "material" : 0
                }
            ]
        }
    ],
    "accessors" : [
        {
            "bufferView" : 0,
            "componentType" : 5126,
            "count" : 7670,
            "max" : [
                0.3963233530521393,
                0.029592396691441536,
                0.3963233530521393
            ],
            "min" : [
                -0.3963233530521393,
                -0.029592396691441536,
                -0.3963233530521393
            ],
            "type" : "VEC3"
        },
        {
            "bufferView" : 1,
            "componentType" : 5126,
            "count" : 7670,
            "type" : "VEC2"
        },
        {
            "bufferView" : 2,
            "componentType" : 5126,
            "count" : 7670,
            "type" : "VEC3"
        },
        {
            "bufferView" : 3,
            "componentType" : 5123,
            "count" : 36864,
            "type" : "SCALAR"
        },
        {
            "bufferView" : 4,
            "componentType" : 5126,
            "count" : 7557,
            "max" : [
                1.1112008094787598,
                1.49822199344635,
                1.1112005710601807
            ],
            "min" : [
                -1.1112009286880493,
                -0.2983863949775696,
                -1.1112011671066284
            ],
            "type" : "VEC3"
        },
        {
            "bufferView" : 5,
            "componentType" : 5126,
            "count" : 7557,
            "type" : "VEC2"
        },
        {
            "bufferView" : 6,
            "componentType" : 5126,
            "count" : 7557,
            "type" : "VEC3"
        },
        {
            "bufferView" : 7,
            "componentType" : 5123,
            "count" : 36864,
            "type" : "SCALAR"
        },
        {
            "bufferView" : 8,
            "componentType" : 5126,
            "count" : 160,
            "max" : [
                0.03999999910593033,
                1,
                0.03999999910593033
            ],
            "min" : [
                -0.03999999910593033,
                -1,
                -0.03999999910593033
            ],
            "type" : "VEC3"
        },
        {
            "bufferView" : 9,
            "componentType" : 5126,
            "count" : 160,
            "type" : "VEC2"
        },
        {
            "bufferView" : 10,
            "componentType" : 5126,
            "count" : 160,
            "type" : "VEC3"
        },
        {
            "bufferView" : 11,
            "componentType" : 5123,
            "count" : 372,
            "type" : "SCALAR"
        }
    ],
    "bufferViews" : [
        {
            "buffer" : 0,
            "byteLength" : 92040,
            "byteOffset" : 0,
            "target" : 34962
        },
        {
            "buffer" : 0,
            "byteLength" : 61360,
            "byteOffset" : 92040,
            "target" : 34962
        },
        {
            "buffer" : 0,
            "byteLength" : 92040,
            "byteOffset" : 153400,
            "target" : 34962
        },
        {
            "buffer" : 0,
            "byteLength" : 73728,
            "byteOffset" : 245440,
            "target" : 34963
        },
        {
            "buffer" : 0,
            "byteLength" : 90684,
            "byteOffset" : 319168,
            "target" : 34962
        },
        {
            "buffer" : 0,
            "byteLength" : 60456,
            "byteOffset" : 409852,
            "target" : 34962
        },
        {
            "buffer" : 0,
            "byteLength" : 90684,
            "byteOffset" : 470308,
            "target" : 34962
        },
        {
            "buffer" : 0,
            "byteLength" : 73728,
            "byteOffset" : 560992,
            "target" : 34963
        },
        {
            "buffer" : 0,
            "byteLength" : 1920,
            "byteOffset" : 634720,
            "target" : 34962
        },
        {
            "buffer" : 0,
            "byteLength" : 1280,
            "byteOffset" : 636640,
            "target" : 34962
        },
        {
            "buffer" : 0,
            "byteLength" : 1920,
            "byteOffset" : 637920,
            "target" : 34962
        },
        {
            "buffer" : 0,
            "byteLength" : 744,
            "byteOffset" : 639840,
            "target" : 34963
        }
    ],
    "buffers" : [
        {
            "byteLength" : 640584,
            "uri" : "data:application/octet-stream;base64,"
        }
    ]
}
