{
    "asset" : {
        "generator" : "Khronos glTF Blender I/O v3.4.50",
        "version" : "2.0"
    },
    "extensionsUsed" : [
        "KHR_materials_specular",
        "KHR_materials_ior"
    ],
    "scene" : 0,
    "scenes" : [
        {
            "name" : "Scene",
            "nodes" : [
                5
            ]
        }
    ],
    "nodes" : [
        {
            "mesh" : 0,
            "name" : "leg",
            "translation" : [
                1.268128514289856,
                0.24700932204723358,
                1.1741796731948853
            ]
        },
        {
            "mesh" : 1,
            "name" : "minisofa seat",
            "scale" : [
                1.4527230262756348,
                0.210379496216774,
                1.2290877103805542
            ],
            "translation" : [
                0.5154043436050415,
                1.0324482917785645,
                0
            ]
        },
        {
            "mesh" : 2,
            "name" : "monisofa body",
            "scale" : [
                1.4495247602462769,
                1,
                0.16227185726165771
            ],
            "translation" : [
                -0.43021395802497864,
                2.0210063457489014,
                0
            ]
        },
        {
            "mesh" : 3,
            "name" : "pillow",
            "rotation" : [
                -0.6325908899307251,
                -0.7744861245155334,
                0,
                1.816421075773178e-07
            ],
            "scale" : [
                0.6924335360527039,
                0.2779748737812042,
                1.1791247129440308
            ],
            "translation" : [
                -0.7467181086540222,
                1.7466387748718262,
                0
            ]
        },
        {
            "name" : "sofa_axis",
            "translation" : [
                0,
                1.0338728427886963,
                0
            ]
        },
        {
            "children" : [
                0,
                1,
                2,
                3,
                4
            ],
            "name" : "minisofa grp",
            "translation" : [
                0,
                -1.0338728427886963,
                0
            ]
        }
    ],
    "materials" : [
        {
            "doubleSided" : true,
            "extensions" : {
                "KHR_materials_specular" : {
                    "specularColorFactor" : [
                        0.31545583138913913,
                        0.31545583138913913,
                        0.31545583138913913
                    ]
                },
                "KHR_materials_ior" : {
                    "ior" : 1.4500000476837158
                }
            },
            "name" : "minisofa brown mat",
            "pbrMetallicRoughness" : {
                "baseColorFactor" : [
                    0.11215440928936005,
                    0.03349994122982025,
                    0.008639884181320667,
                    1
                ],
                "metallicFactor" : 0,
                "roughnessFactor" : 0.747706413269043
            }
        },
        {
            "doubleSided" : true,
            "extensions" : {
                "KHR_materials_specular" : {
                    "specularColorFactor" : [
                        0.282822415908083,
                        0.282822415908083,
                        0.282822415908083
                    ]
                },
                "KHR_materials_ior" : {
                    "ior" : 1.4500000476837158
                }
            },
            "name" : "pillow grey mat.001",
            "pbrMetallicRoughness" : {
                "baseColorFactor" : [
                    0.02342326007783413,
                    0.02342326007783413,
                    0.02342326007783413,
                    1
                ],
                "metallicFactor" : 0,
                "roughnessFactor" : 0.6467889547348022
            }
        }
    ],
    "meshes" : [
        {
            "name" : "Mesh.007",
            "primitives" : [
                {
                    "attributes" : {
                        "POSITION" : 0,
                        "TEXCOORD_0" : 1,
                        "NORMAL" : 2
                    },
                    "indices" : 3,
                    "material" : 0
                }
            ]
        },
        {
            "name" : "Mesh.005",
            "primitives" : [
                {
                    "attributes" : {
                        "POSITION" : 4,
                        "TEXCOORD_0" : 5,
                        "NORMAL" : 6
                    },
                    "indices" : 7,
                    "material" : 1
                }
            ]
        },
        {
            "name" : "Cube.041",
            "primitives" : [
                {
                    "attributes" : {
                        "POSITION" : 8,
                        "TEXCOORD_0" : 9,
                        "NORMAL" : 10
                    },
                    "indices" : 11,
                    "material" : 1
                }
            ]
        },
        {
            "name" : "Mesh.006",
            "primitives" : [
                {
                    "attributes" : {
                        "POSITION" : 12,
                        "TEXCOORD_0" : 13,
                        "NORMAL" : 14
                    },
                    "indices" : 15,
                    "material" : 1
                }
            ]
        }
    ],
    "accessors" : [
        {
            "bufferView" : 0,
            "componentType" : 5126,
            "count" : 3072,
            "max" : [
                0.1327601671218872,
                0.2759668827056885,
                0.1192966103553772
            ],
            "min" : [
                -2.6690173149108887,
                -0.25435352325439453,
                -2.467655897140503
            ],
            "type" : "VEC3"
        },
        {
            "bufferView" : 1,
            "componentType" : 5126,
            "count" : 3072,
            "type" : "VEC2"
        },
        {
            "bufferView" : 2,
            "componentType" : 5126,
            "count" : 3072,
            "type" : "VEC3"
        },
        {
            "bufferView" : 3,
            "componentType" : 5123,
            "count" : 4608,
            "type" : "SCALAR"
        },
        {
            "bufferView" : 4,
            "componentType" : 5126,
            "count" : 3875,
            "max" : [
                0.8345928192138672,
                0.3785228133201599,
                0.9942300915718079
            ],
            "min" : [
                -0.9942300915718079,
                -0.9942300915718079,
                -0.9942300915718079
            ],
            "type" : "VEC3"
        },
        {
            "bufferView" : 5,
            "componentType" : 5126,
            "count" : 3875,
            "type" : "VEC2"
        },
        {
            "bufferView" : 6,
            "componentType" : 5126,
            "count" : 3875,
            "type" : "VEC3"
        },
        {
            "bufferView" : 7,
            "componentType" : 5123,
            "count" : 9216,
            "type" : "SCALAR"
        },
        {
            "bufferView" : 8,
            "componentType" : 5126,
            "count" : 2061,
            "max" : [
                1.4984511137008667,
                1.4769880771636963,
                9.740802764892578
            ],
            "min" : [
                -0.958970308303833,
                -1.5298991203308105,
                -9.641403198242188
            ],
            "type" : "VEC3"
        },
        {
            "bufferView" : 9,
            "componentType" : 5126,
            "count" : 2061,
            "type" : "VEC2"
        },
        {
            "bufferView" : 10,
            "componentType" : 5126,
            "count" : 2061,
            "type" : "VEC3"
        },
        {
            "bufferView" : 11,
            "componentType" : 5123,
            "count" : 3258,
            "type" : "SCALAR"
        },
        {
            "bufferView" : 12,
            "componentType" : 5126,
            "count" : 13461,
            "max" : [
                0.9259901642799377,
                0.9609913229942322,
                0.9521158933639526
            ],
            "min" : [
                -0.9257004857063293,
                -1.2026408910751343,
                -0.9521159529685974
            ],
            "type" : "VEC3"
        },
        {
            "bufferView" : 13,
            "componentType" : 5126,
            "count" : 13461,
            "type" : "VEC2"
        },
        {
            "bufferView" : 14,
            "componentType" : 5126,
            "count" : 13461,
            "type" : "VEC3"
        },
        {
            "bufferView" : 15,
            "componentType" : 5123,
            "count" : 28032,
            "type" : "SCALAR"
        }
    ],
    "bufferViews" : [
        {
            "buffer" : 0,
            "byteLength" : 36864,
            "byteOffset" : 0,
            "target" : 34962
        },
        {
            "buffer" : 0,
            "byteLength" : 24576,
            "byteOffset" : 36864,
            "target" : 34962
        },
        {
            "buffer" : 0,
            "byteLength" : 36864,
            "byteOffset" : 61440,
            "target" : 34962
        },
        {
            "buffer" : 0,
            "byteLength" : 9216,
            "byteOffset" : 98304,
            "target" : 34963
        },
        {
            "buffer" : 0,
            "byteLength" : 46500,
            "byteOffset" : 107520,
            "target" : 34962
        },
        {
            "buffer" : 0,
            "byteLength" : 31000,
            "byteOffset" : 154020,
            "target" : 34962
        },
        {
            "buffer" : 0,
            "byteLength" : 46500,
            "byteOffset" : 185020,
            "target" : 34962
        },
        {
            "buffer" : 0,
            "byteLength" : 18432,
            "byteOffset" : 231520,
            "target" : 34963
        },
        {
            "buffer" : 0,
            "byteLength" : 24732,
            "byteOffset" : 249952,
            "target" : 34962
        },
        {
            "buffer" : 0,
            "byteLength" : 16488,
            "byteOffset" : 274684,
            "target" : 34962
        },
        {
            "buffer" : 0,
            "byteLength" : 24732,
            "byteOffset" : 291172,
            "target" : 34962
        },
        {
            "buffer" : 0,
            "byteLength" : 6516,
            "byteOffset" : 315904,
            "target" : 34963
        },
        {
            "buffer" : 0,
            "byteLength" : 161532,
            "byteOffset" : 322420,
            "target" : 34962
        },
        {
            "buffer" : 0,
            "byteLength" : 107688,
            "byteOffset" : 483952,
            "target" : 34962
        },
        {
            "buffer" : 0,
            "byteLength" : 161532,
            "byteOffset" : 591640,
            "target" : 34962
        },
        {
            "buffer" : 0,
            "byteLength" : 56064,
            "byteOffset" : 753172,
            "target" : 34963
        }
    ],
    "buffers" : [
        {
            "byteLength" : 809236,
            "uri" : "data:application/octet-stream;base64,"
        }
    ]
}
