{
    "asset" : {
        "generator" : "Khronos glTF Blender I/O v3.4.50",
        "version" : "2.0"
    },
    "extensionsUsed" : [
        "KHR_materials_specular",
        "KHR_materials_ior"
    ],
    "scene" : 0,
    "scenes" : [
        {
            "name" : "Scene",
            "nodes" : [
                2
            ]
        }
    ],
    "nodes" : [
        {
            "mesh" : 0,
            "name" : "minisofa foot",
            "scale" : [
                0.7008938193321228,
                0.16533292829990387,
                0.9682372808456421
            ],
            "translation" : [
                0,
                0.578506350517273,
                0
            ]
        },
        {
            "mesh" : 1,
            "name" : "minisofa foot leg",
            "scale" : [
                0.8003539443016052,
                0.8003539443016052,
                0.8003539443016052
            ],
            "translation" : [
                0.5028296709060669,
                0.20163783431053162,
                0.7004326581954956
            ]
        },
        {
            "children" : [
                0,
                1
            ],
            "name" : "minisofa foot grp",
            "translation" : [
                0,
                -0.5801260471343994,
                0
            ]
        }
    ],
    "materials" : [
        {
            "doubleSided" : true,
            "extensions" : {
                "KHR_materials_specular" : {
                    "specularColorFactor" : [
                        0.282822415908083,
                        0.282822415908083,
                        0.282822415908083
                    ]
                },
                "KHR_materials_ior" : {
                    "ior" : 1.4500000476837158
                }
            },
            "name" : "pillow grey mat.002",
            "pbrMetallicRoughness" : {
                "baseColorFactor" : [
                    0.02342326007783413,
                    0.02342326007783413,
                    0.02342326007783413,
                    1
                ],
                "metallicFactor" : 0,
                "roughnessFactor" : 0.6467889547348022
            }
        },
        {
            "doubleSided" : true,
            "extensions" : {
                "KHR_materials_specular" : {
                    "specularColorFactor" : [
                        0.31545583138913913,
                        0.31545583138913913,
                        0.31545583138913913
                    ]
                },
                "KHR_materials_ior" : {
                    "ior" : 1.4500000476837158
                }
            },
            "name" : "minisofa brown mat.001",
            "pbrMetallicRoughness" : {
                "baseColorFactor" : [
                    0.11215440928936005,
                    0.03349994122982025,
                    0.008639884181320667,
                    1
                ],
                "metallicFactor" : 0,
                "roughnessFactor" : 0.747706413269043
            }
        }
    ],
    "meshes" : [
        {
            "name" : "Mesh.008",
            "primitives" : [
                {
                    "attributes" : {
                        "POSITION" : 0,
                        "TEXCOORD_0" : 1,
                        "NORMAL" : 2
                    },
                    "indices" : 3,
                    "material" : 0
                }
            ]
        },
        {
            "name" : "Mesh.009",
            "primitives" : [
                {
                    "attributes" : {
                        "POSITION" : 4,
                        "TEXCOORD_0" : 5,
                        "NORMAL" : 6
                    },
                    "indices" : 7,
                    "material" : 1
                }
            ]
        }
    ],
    "accessors" : [
        {
            "bufferView" : 0,
            "componentType" : 5126,
            "count" : 10362,
            "max" : [
                0.9933238625526428,
                0.9933238625526428,
                0.9933238625526428
            ],
            "min" : [
                -0.9933238625526428,
                -0.9933238625526428,
                -0.9933238625526428
            ],
            "type" : "VEC3"
        },
        {
            "bufferView" : 1,
            "componentType" : 5126,
            "count" : 10362,
            "type" : "VEC2"
        },
        {
            "bufferView" : 2,
            "componentType" : 5126,
            "count" : 10362,
            "type" : "VEC3"
        },
        {
            "bufferView" : 3,
            "componentType" : 5123,
            "count" : 20736,
            "type" : "SCALAR"
        },
        {
            "bufferView" : 4,
            "componentType" : 5126,
            "count" : 3072,
            "max" : [
                0.1327601671218872,
                0.2759668827056885,
                0.1192966103553772
            ],
            "min" : [
                -1.3892784118652344,
                -0.25435352325439453,
                -1.8696033954620361
            ],
            "type" : "VEC3"
        },
        {
            "bufferView" : 5,
            "componentType" : 5126,
            "count" : 3072,
            "type" : "VEC2"
        },
        {
            "bufferView" : 6,
            "componentType" : 5126,
            "count" : 3072,
            "type" : "VEC3"
        },
        {
            "bufferView" : 7,
            "componentType" : 5123,
            "count" : 4608,
            "type" : "SCALAR"
        }
    ],
    "bufferViews" : [
        {
            "buffer" : 0,
            "byteLength" : 124344,
            "byteOffset" : 0,
            "target" : 34962
        },
        {
            "buffer" : 0,
            "byteLength" : 82896,
            "byteOffset" : 124344,
            "target" : 34962
        },
        {
            "buffer" : 0,
            "byteLength" : 124344,
            "byteOffset" : 207240,
            "target" : 34962
        },
        {
            "buffer" : 0,
            "byteLength" : 41472,
            "byteOffset" : 331584,
            "target" : 34963
        },
        {
            "buffer" : 0,
            "byteLength" : 36864,
            "byteOffset" : 373056,
            "target" : 34962
        },
        {
            "buffer" : 0,
            "byteLength" : 24576,
            "byteOffset" : 409920,
            "target" : 34962
        },
        {
            "buffer" : 0,
            "byteLength" : 36864,
            "byteOffset" : 434496,
            "target" : 34962
        },
        {
            "buffer" : 0,
            "byteLength" : 9216,
            "byteOffset" : 471360,
            "target" : 34963
        }
    ],
    "buffers" : [
        {
            "byteLength" : 480576,
            "uri" : "data:application/octet-stream;base64,"
        }
    ]
}
