{
    "asset" : {
        "generator" : "Khronos glTF Blender I/O v3.4.50",
        "version" : "2.0"
    },
    "scene" : 0,
    "scenes" : [
        {
            "name" : "Scene",
            "nodes" : [
                0
            ]
        }
    ],
    "nodes" : [
        {
            "mesh" : 0,
            "name" : "pillow",
            "rotation" : [
                -1,
                0,
                0,
                1.9470718370939721e-07
            ],
            "scale" : [
                0.8349173069000244,
                0.33517447113990784,
                1.4217561483383179
            ],
            "translation" : [
                0,
                0.00028020143508911133,
                0
            ]
        }
    ],
    "materials" : [
        {
            "doubleSided" : true,
            "name" : "pillow grey mat.003",
            "pbrMetallicRoughness" : {
                "baseColorFactor" : [
                    0.29893091320991516,
                    0.29893091320991516,
                    0.29893091320991516,
                    1
                ],
                "metallicFactor" : 0,
                "roughnessFactor" : 0.5
            }
        }
    ],
    "meshes" : [
        {
            "name" : "Mesh.010",
            "primitives" : [
                {
                    "attributes" : {
                        "POSITION" : 0,
                        "TEXCOORD_0" : 1,
                        "NORMAL" : 2
                    },
                    "indices" : 3,
                    "material" : 0
                }
            ]
        }
    ],
    "accessors" : [
        {
            "bufferView" : 0,
            "componentType" : 5126,
            "count" : 13783,
            "max" : [
                0.9259901642799377,
                0.9609913229942322,
                0.9521158933639526
            ],
            "min" : [
                -0.9257004857063293,
                -1.2026408910751343,
                -0.9521159529685974
            ],
            "type" : "VEC3"
        },
        {
            "bufferView" : 1,
            "componentType" : 5126,
            "count" : 13783,
            "type" : "VEC2"
        },
        {
            "bufferView" : 2,
            "componentType" : 5126,
            "count" : 13783,
            "type" : "VEC3"
        },
        {
            "bufferView" : 3,
            "componentType" : 5123,
            "count" : 28032,
            "type" : "SCALAR"
        }
    ],
    "bufferViews" : [
        {
            "buffer" : 0,
            "byteLength" : 165396,
            "byteOffset" : 0,
            "target" : 34962
        },
        {
            "buffer" : 0,
            "byteLength" : 110264,
            "byteOffset" : 165396,
            "target" : 34962
        },
        {
            "buffer" : 0,
            "byteLength" : 165396,
            "byteOffset" : 275660,
            "target" : 34962
        },
        {
            "buffer" : 0,
            "byteLength" : 56064,
            "byteOffset" : 441056,
            "target" : 34963
        }
    ],
    "buffers" : [
        {
            "byteLength" : 497120,
            "uri" : "data:application/octet-stream;base64,"
        }
    ]
}
