{
    "asset" : {
        "generator" : "Khronos glTF Blender I/O v3.4.50",
        "version" : "2.0"
    },
    "extensionsUsed" : [
        "KHR_materials_specular",
        "KHR_materials_ior"
    ],
    "scene" : 0,
    "scenes" : [
        {
            "name" : "Scene",
            "nodes" : [
                3
            ]
        }
    ],
    "nodes" : [
        {
            "mesh" : 0,
            "name" : "sofa",
            "scale" : [
                1,
                0.762953519821167,
                1
            ],
            "translation" : [
                -0.5,
                0,
                0
            ]
        },
        {
            "mesh" : 1,
            "name" : "sofa cushion",
            "scale" : [
                1,
                0.762953519821167,
                1
            ],
            "translation" : [
                -0.5,
                0,
                0
            ]
        },
        {
            "mesh" : 2,
            "name" : "sofa_leg",
            "scale" : [
                0.08888280391693115,
                0.08888280391693115,
                0.08888280391693115
            ],
            "translation" : [
                -1.2378978729248047,
                -0.4703594446182251,
                0.3942251205444336
            ]
        },
        {
            "children" : [
                0,
                1,
                2
            ],
            "name" : "sofa_grp"
        }
    ],
    "materials" : [
        {
            "doubleSided" : true,
            "extensions" : {
                "KHR_materials_specular" : {
                    "specularColorFactor" : [
                        1.088225702294531,
                        1.088225702294531,
                        1.088225702294531
                    ]
                },
                "KHR_materials_ior" : {
                    "ior" : 1.4500000476837158
                }
            },
            "name" : "sofa.001",
            "pbrMetallicRoughness" : {
                "baseColorFactor" : [
                    0.3694109618663788,
                    0.052674468606710434,
                    0.005807352717965841,
                    1
                ],
                "metallicFactor" : 0,
                "roughnessFactor" : 0.8013699054718018
            }
        },
        {
            "doubleSided" : true,
            "extensions" : {
                "KHR_materials_specular" : {
                    "specularColorFactor" : [
                        0,
                        0,
                        0
                    ]
                },
                "KHR_materials_ior" : {
                    "ior" : 1.4500000476837158
                }
            },
            "name" : "sofa leg mat.001",
            "pbrMetallicRoughness" : {
                "baseColorFactor" : [
                    0.8000000715255737,
                    0.23565839231014252,
                    0.017356785014271736,
                    1
                ],
                "metallicFactor" : 0,
                "roughnessFactor" : 0.6164383888244629
            }
        }
    ],
    "meshes" : [
        {
            "name" : "Cube.043",
            "primitives" : [
                {
                    "attributes" : {
                        "POSITION" : 0,
                        "TEXCOORD_0" : 1,
                        "NORMAL" : 2
                    },
                    "indices" : 3,
                    "material" : 0
                }
            ]
        },
        {
            "name" : "Cube.044",
            "primitives" : [
                {
                    "attributes" : {
                        "POSITION" : 4,
                        "TEXCOORD_0" : 5,
                        "NORMAL" : 6
                    },
                    "indices" : 7,
                    "material" : 0
                }
            ]
        },
        {
            "name" : "Cylinder.023",
            "primitives" : [
                {
                    "attributes" : {
                        "POSITION" : 8,
                        "TEXCOORD_0" : 9,
                        "NORMAL" : 10
                    },
                    "indices" : 11,
                    "material" : 1
                }
            ]
        }
    ],
    "accessors" : [
        {
            "bufferView" : 0,
            "componentType" : 5126,
            "count" : 285,
            "max" : [
                1.842563509941101,
                0.5,
                0.5
            ],
            "min" : [
                -0.8425635099411011,
                -0.5,
                -0.5
            ],
            "type" : "VEC3"
        },
        {
            "bufferView" : 1,
            "componentType" : 5126,
            "count" : 285,
            "type" : "VEC2"
        },
        {
            "bufferView" : 2,
            "componentType" : 5126,
            "count" : 285,
            "type" : "VEC3"
        },
        {
            "bufferView" : 3,
            "componentType" : 5123,
            "count" : 825,
            "type" : "SCALAR"
        },
        {
            "bufferView" : 4,
            "componentType" : 5126,
            "count" : 1529,
            "max" : [
                1.6633083820343018,
                0.560263991355896,
                0.48963746428489685
            ],
            "min" : [
                -0.6633083820343018,
                -0.21871131658554077,
                -0.2952041029930115
            ],
            "type" : "VEC3"
        },
        {
            "bufferView" : 5,
            "componentType" : 5126,
            "count" : 1529,
            "type" : "VEC2"
        },
        {
            "bufferView" : 6,
            "componentType" : 5126,
            "count" : 1529,
            "type" : "VEC3"
        },
        {
            "bufferView" : 7,
            "componentType" : 5123,
            "count" : 5184,
            "type" : "SCALAR"
        },
        {
            "bufferView" : 8,
            "componentType" : 5126,
            "count" : 264,
            "max" : [
                28.854610443115234,
                1,
                1.0000004768371582
            ],
            "min" : [
                -1.0000009536743164,
                -1.0000009536743164,
                -9.870672225952148
            ],
            "type" : "VEC3"
        },
        {
            "bufferView" : 9,
            "componentType" : 5126,
            "count" : 264,
            "type" : "VEC2"
        },
        {
            "bufferView" : 10,
            "componentType" : 5126,
            "count" : 264,
            "type" : "VEC3"
        },
        {
            "bufferView" : 11,
            "componentType" : 5123,
            "count" : 720,
            "type" : "SCALAR"
        }
    ],
    "bufferViews" : [
        {
            "buffer" : 0,
            "byteLength" : 3420,
            "byteOffset" : 0,
            "target" : 34962
        },
        {
            "buffer" : 0,
            "byteLength" : 2280,
            "byteOffset" : 3420,
            "target" : 34962
        },
        {
            "buffer" : 0,
            "byteLength" : 3420,
            "byteOffset" : 5700,
            "target" : 34962
        },
        {
            "buffer" : 0,
            "byteLength" : 1650,
            "byteOffset" : 9120,
            "target" : 34963
        },
        {
            "buffer" : 0,
            "byteLength" : 18348,
            "byteOffset" : 10772,
            "target" : 34962
        },
        {
            "buffer" : 0,
            "byteLength" : 12232,
            "byteOffset" : 29120,
            "target" : 34962
        },
        {
            "buffer" : 0,
            "byteLength" : 18348,
            "byteOffset" : 41352,
            "target" : 34962
        },
        {
            "buffer" : 0,
            "byteLength" : 10368,
            "byteOffset" : 59700,
            "target" : 34963
        },
        {
            "buffer" : 0,
            "byteLength" : 3168,
            "byteOffset" : 70068,
            "target" : 34962
        },
        {
            "buffer" : 0,
            "byteLength" : 2112,
            "byteOffset" : 73236,
            "target" : 34962
        },
        {
            "buffer" : 0,
            "byteLength" : 3168,
            "byteOffset" : 75348,
            "target" : 34962
        },
        {
            "buffer" : 0,
            "byteLength" : 1440,
            "byteOffset" : 78516,
            "target" : 34963
        }
    ],
    "buffers" : [
        {
            "byteLength" : 79956,
            "uri" : "data:application/octet-stream;base64,"
        }
    ]
}
