{
    "asset" : {
        "generator" : "Khronos glTF Blender I/O v3.4.50",
        "version" : "2.0"
    },
    "extensionsUsed" : [
        "KHR_materials_specular",
        "KHR_materials_ior"
    ],
    "scene" : 0,
    "scenes" : [
        {
            "name" : "Scene",
            "nodes" : [
                2
            ]
        }
    ],
    "nodes" : [
        {
            "mesh" : 0,
            "name" : "table_leg",
            "rotation" : [
                0.17364829778671265,
                0,
                0,
                0.9848077297210693
            ],
            "scale" : [
                0.06657971441745758,
                0.1415068805217743,
                0.06657970696687698
            ],
            "translation" : [
                -0.7194114923477173,
                0.22270986437797546,
                -0.4123409390449524
            ]
        },
        {
            "children" : [
                0
            ],
            "name" : "table_leg_group",
            "scale" : [
                0.8987984657287598,
                1.3749881982803345,
                1.3749881982803345
            ],
            "translation" : [
                -0.009369821287691593,
                -0.6009526252746582,
                -0.045868825167417526
            ]
        },
        {
            "children" : [
                1
            ],
            "mesh" : 1,
            "name" : "table",
            "scale" : [
                1.1125966310501099,
                0.7272789478302002,
                0.7272789478302002
            ]
        }
    ],
    "materials" : [
        {
            "doubleSided" : true,
            "extensions" : {
                "KHR_materials_specular" : {
                    "specularColorFactor" : [
                        0.2598748051258528,
                        0.2598748051258528,
                        0.2598748051258528
                    ]
                },
                "KHR_materials_ior" : {
                    "ior" : 1.4500000476837158
                }
            },
            "name" : "table mat",
            "pbrMetallicRoughness" : {
                "baseColorFactor" : [
                    0.05140918865799904,
                    0.03132093325257301,
                    0.025760894641280174,
                    1
                ],
                "metallicFactor" : 0
            }
        }
    ],
    "meshes" : [
        {
            "name" : "Cylinder.031",
            "primitives" : [
                {
                    "attributes" : {
                        "POSITION" : 0,
                        "TEXCOORD_0" : 1,
                        "NORMAL" : 2
                    },
                    "indices" : 3,
                    "material" : 0
                }
            ]
        },
        {
            "name" : "Circle",
            "primitives" : [
                {
                    "attributes" : {
                        "POSITION" : 4,
                        "TEXCOORD_0" : 5,
                        "NORMAL" : 6
                    },
                    "indices" : 7,
                    "material" : 0
                }
            ]
        }
    ],
    "accessors" : [
        {
            "bufferView" : 0,
            "componentType" : 5126,
            "count" : 724,
            "max" : [
                22.610530853271484,
                3.061723470687866,
                14.224058151245117
            ],
            "min" : [
                -1.0000009536743164,
                -1.5458221435546875,
                -1
            ],
            "type" : "VEC3"
        },
        {
            "bufferView" : 1,
            "componentType" : 5126,
            "count" : 724,
            "type" : "VEC2"
        },
        {
            "bufferView" : 2,
            "componentType" : 5126,
            "count" : 724,
            "type" : "VEC3"
        },
        {
            "bufferView" : 3,
            "componentType" : 5123,
            "count" : 1212,
            "type" : "SCALAR"
        },
        {
            "bufferView" : 4,
            "componentType" : 5126,
            "count" : 192,
            "max" : [
                1,
                0,
                1
            ],
            "min" : [
                -1,
                -0.10999902337789536,
                -1
            ],
            "type" : "VEC3"
        },
        {
            "bufferView" : 5,
            "componentType" : 5126,
            "count" : 192,
            "type" : "VEC2"
        },
        {
            "bufferView" : 6,
            "componentType" : 5126,
            "count" : 192,
            "type" : "VEC3"
        },
        {
            "bufferView" : 7,
            "componentType" : 5123,
            "count" : 372,
            "type" : "SCALAR"
        }
    ],
    "bufferViews" : [
        {
            "buffer" : 0,
            "byteLength" : 8688,
            "byteOffset" : 0,
            "target" : 34962
        },
        {
            "buffer" : 0,
            "byteLength" : 5792,
            "byteOffset" : 8688,
            "target" : 34962
        },
        {
            "buffer" : 0,
            "byteLength" : 8688,
            "byteOffset" : 14480,
            "target" : 34962
        },
        {
            "buffer" : 0,
            "byteLength" : 2424,
            "byteOffset" : 23168,
            "target" : 34963
        },
        {
            "buffer" : 0,
            "byteLength" : 2304,
            "byteOffset" : 25592,
            "target" : 34962
        },
        {
            "buffer" : 0,
            "byteLength" : 1536,
            "byteOffset" : 27896,
            "target" : 34962
        },
        {
            "buffer" : 0,
            "byteLength" : 2304,
            "byteOffset" : 29432,
            "target" : 34962
        },
        {
            "buffer" : 0,
            "byteLength" : 744,
            "byteOffset" : 31736,
            "target" : 34963
        }
    ],
    "buffers" : [
        {
            "byteLength" : 32480,
            "uri" : "data:application/octet-stream;base64,"
        }
    ]
}
