{
    "asset" : {
        "generator" : "Khronos glTF Blender I/O v3.4.50",
        "version" : "2.0"
    },
    "extensionsUsed" : [
        "KHR_materials_specular",
        "KHR_materials_ior"
    ],
    "scene" : 0,
    "scenes" : [
        {
            "name" : "Scene",
            "nodes" : [
                4
            ]
        }
    ],
    "nodes" : [
        {
            "mesh" : 0,
            "name" : "window",
            "scale" : [
                1,
                2.4110934734344482,
                0.10181286931037903
            ],
            "translation" : [
                -0.9999999403953552,
                0,
                0.1019757017493248
            ]
        },
        {
            "mesh" : 1,
            "name" : "window clothes",
            "rotation" : [
                0.70710688829422,
                0,
                0,
                0.7071066498756409
            ],
            "scale" : [
                0.1876627802848816,
                0.3773241639137268,
                2.3915560245513916
            ],
            "translation" : [
                -1.7459131479263306,
                0.08232416212558746,
                0.23899202048778534
            ]
        },
        {
            "mesh" : 2,
            "name" : "Sphere",
            "scale" : [
                0.07913969457149506,
                1.6162991523742676,
                1.6162991523742676
            ],
            "translation" : [
                -1.0409010648727417,
                0.040629979223012924,
                0
            ]
        },
        {
            "children" : [
                2
            ],
            "mesh" : 3,
            "name" : "window top",
            "scale" : [
                2.2725989818573,
                0.11127443611621857,
                0.11127443611621857
            ],
            "translation" : [
                0,
                2.5789260864257812,
                0.14194256067276
            ]
        },
        {
            "children" : [
                0,
                1,
                3
            ],
            "name" : "window axis",
            "rotation" : [
                0,
                0.7071068286895752,
                0,
                0.7071068286895752
            ],
            "scale" : [
                0.7001983523368835,
                0.7001983523368835,
                0.7001983523368835
            ],
            "translation" : [
                0,
                0,
                -0.1019757091999054
            ]
        }
    ],
    "materials" : [
        {
            "doubleSided" : true,
            "extensions" : {
                "KHR_materials_specular" : {
                    "specularColorFactor" : [
                        0.948543059910952,
                        0.948543059910952,
                        0.948543059910952
                    ]
                },
                "KHR_materials_ior" : {
                    "ior" : 1.4500000476837158
                }
            },
            "name" : "window mat",
            "pbrMetallicRoughness" : {
                "baseColorFactor" : [
                    0.6812775731086731,
                    0.6858439445495605,
                    1,
                    1
                ],
                "metallicFactor" : 0,
                "roughnessFactor" : 0.4000000059604645
            }
        },
        {
            "doubleSided" : true,
            "name" : "window frame mat",
            "pbrMetallicRoughness" : {
                "baseColorFactor" : [
                    0,
                    0,
                    0,
                    1
                ],
                "metallicFactor" : 0,
                "roughnessFactor" : 0.5
            }
        },
        {
            "doubleSided" : true,
            "name" : "window clothes mat",
            "pbrMetallicRoughness" : {
                "baseColorFactor" : [
                    0.3235546350479126,
                    0.3235546350479126,
                    0.3235546350479126,
                    1
                ],
                "metallicFactor" : 0,
                "roughnessFactor" : 0.6000000238418579
            }
        }
    ],
    "meshes" : [
        {
            "name" : "Cube.055",
            "primitives" : [
                {
                    "attributes" : {
                        "POSITION" : 0,
                        "TEXCOORD_0" : 1,
                        "NORMAL" : 2
                    },
                    "indices" : 3,
                    "material" : 0
                },
                {
                    "attributes" : {
                        "POSITION" : 4,
                        "TEXCOORD_0" : 5,
                        "NORMAL" : 6
                    },
                    "indices" : 7,
                    "material" : 1
                }
            ]
        },
        {
            "name" : "Plane.020",
            "primitives" : [
                {
                    "attributes" : {
                        "POSITION" : 8,
                        "TEXCOORD_0" : 9,
                        "NORMAL" : 10
                    },
                    "indices" : 11,
                    "material" : 2
                }
            ]
        },
        {
            "name" : "Sphere.001",
            "primitives" : [
                {
                    "attributes" : {
                        "POSITION" : 12,
                        "TEXCOORD_0" : 13,
                        "NORMAL" : 14
                    },
                    "indices" : 15,
                    "material" : 1
                }
            ]
        },
        {
            "name" : "Cube.056",
            "primitives" : [
                {
                    "attributes" : {
                        "POSITION" : 16,
                        "TEXCOORD_0" : 17,
                        "NORMAL" : 18
                    },
                    "indices" : 19,
                    "material" : 1
                }
            ]
        }
    ],
    "accessors" : [
        {
            "bufferView" : 0,
            "componentType" : 5126,
            "count" : 48,
            "max" : [
                2.8696396350860596,
                0.8696396350860596,
                0.2206621766090393
            ],
            "min" : [
                -0.8696396350860596,
                -0.8696396350860596,
                -0.3661288022994995
            ],
            "type" : "VEC3"
        },
        {
            "bufferView" : 1,
            "componentType" : 5126,
            "count" : 48,
            "type" : "VEC2"
        },
        {
            "bufferView" : 2,
            "componentType" : 5126,
            "count" : 48,
            "type" : "VEC3"
        },
        {
            "bufferView" : 3,
            "componentType" : 5123,
            "count" : 72,
            "type" : "SCALAR"
        },
        {
            "bufferView" : 4,
            "componentType" : 5126,
            "count" : 106,
            "max" : [
                3,
                1,
                1
            ],
            "min" : [
                -1,
                -1,
                -1
            ],
            "type" : "VEC3"
        },
        {
            "bufferView" : 5,
            "componentType" : 5126,
            "count" : 106,
            "type" : "VEC2"
        },
        {
            "bufferView" : 6,
            "componentType" : 5126,
            "count" : 106,
            "type" : "VEC3"
        },
        {
            "bufferView" : 7,
            "componentType" : 5123,
            "count" : 234,
            "type" : "SCALAR"
        },
        {
            "bufferView" : 8,
            "componentType" : 5126,
            "count" : 162,
            "max" : [
                20.00267219543457,
                0.45255041122436523,
                1.0000001192092896
            ],
            "min" : [
                -1.395753264427185,
                0.009404633194208145,
                -1.0000001192092896
            ],
            "type" : "VEC3"
        },
        {
            "bufferView" : 9,
            "componentType" : 5126,
            "count" : 162,
            "type" : "VEC2"
        },
        {
            "bufferView" : 10,
            "componentType" : 5126,
            "count" : 162,
            "type" : "VEC3"
        },
        {
            "bufferView" : 11,
            "componentType" : 5123,
            "count" : 306,
            "type" : "SCALAR"
        },
        {
            "bufferView" : 12,
            "componentType" : 5126,
            "count" : 600,
            "max" : [
                27.305408477783203,
                1.000002145767212,
                1.0000001192092896
            ],
            "min" : [
                -1,
                -0.9999991655349731,
                -1.0000001192092896
            ],
            "type" : "VEC3"
        },
        {
            "bufferView" : 13,
            "componentType" : 5126,
            "count" : 600,
            "type" : "VEC2"
        },
        {
            "bufferView" : 14,
            "componentType" : 5126,
            "count" : 600,
            "type" : "VEC3"
        },
        {
            "bufferView" : 15,
            "componentType" : 5123,
            "count" : 924,
            "type" : "SCALAR"
        },
        {
            "bufferView" : 16,
            "componentType" : 5126,
            "count" : 36,
            "max" : [
                1,
                1,
                1
            ],
            "min" : [
                -1,
                -1,
                -1
            ],
            "type" : "VEC3"
        },
        {
            "bufferView" : 17,
            "componentType" : 5126,
            "count" : 36,
            "type" : "VEC2"
        },
        {
            "bufferView" : 18,
            "componentType" : 5126,
            "count" : 36,
            "type" : "VEC3"
        },
        {
            "bufferView" : 19,
            "componentType" : 5123,
            "count" : 66,
            "type" : "SCALAR"
        }
    ],
    "bufferViews" : [
        {
            "buffer" : 0,
            "byteLength" : 576,
            "byteOffset" : 0,
            "target" : 34962
        },
        {
            "buffer" : 0,
            "byteLength" : 384,
            "byteOffset" : 576,
            "target" : 34962
        },
        {
            "buffer" : 0,
            "byteLength" : 576,
            "byteOffset" : 960,
            "target" : 34962
        },
        {
            "buffer" : 0,
            "byteLength" : 144,
            "byteOffset" : 1536,
            "target" : 34963
        },
        {
            "buffer" : 0,
            "byteLength" : 1272,
            "byteOffset" : 1680,
            "target" : 34962
        },
        {
            "buffer" : 0,
            "byteLength" : 848,
            "byteOffset" : 2952,
            "target" : 34962
        },
        {
            "buffer" : 0,
            "byteLength" : 1272,
            "byteOffset" : 3800,
            "target" : 34962
        },
        {
            "buffer" : 0,
            "byteLength" : 468,
            "byteOffset" : 5072,
            "target" : 34963
        },
        {
            "buffer" : 0,
            "byteLength" : 1944,
            "byteOffset" : 5540,
            "target" : 34962
        },
        {
            "buffer" : 0,
            "byteLength" : 1296,
            "byteOffset" : 7484,
            "target" : 34962
        },
        {
            "buffer" : 0,
            "byteLength" : 1944,
            "byteOffset" : 8780,
            "target" : 34962
        },
        {
            "buffer" : 0,
            "byteLength" : 612,
            "byteOffset" : 10724,
            "target" : 34963
        },
        {
            "buffer" : 0,
            "byteLength" : 7200,
            "byteOffset" : 11336,
            "target" : 34962
        },
        {
            "buffer" : 0,
            "byteLength" : 4800,
            "byteOffset" : 18536,
            "target" : 34962
        },
        {
            "buffer" : 0,
            "byteLength" : 7200,
            "byteOffset" : 23336,
            "target" : 34962
        },
        {
            "buffer" : 0,
            "byteLength" : 1848,
            "byteOffset" : 30536,
            "target" : 34963
        },
        {
            "buffer" : 0,
            "byteLength" : 432,
            "byteOffset" : 32384,
            "target" : 34962
        },
        {
            "buffer" : 0,
            "byteLength" : 288,
            "byteOffset" : 32816,
            "target" : 34962
        },
        {
            "buffer" : 0,
            "byteLength" : 432,
            "byteOffset" : 33104,
            "target" : 34962
        },
        {
            "buffer" : 0,
            "byteLength" : 132,
            "byteOffset" : 33536,
            "target" : 34963
        }
    ],
    "buffers" : [
        {
            "byteLength" : 33668,
            "uri" : "data:application/octet-stream;base64,"
        }
    ]
}
